<svg width="48" height="44" viewBox="0 0 48 44" fill="none" xmlns="http://www.w3.org/2000/svg">
<path fill-rule="evenodd" clip-rule="evenodd" d="M11.7916 38.3684C16.546 38.3895 20.7839 39.8021 23.9148 40.8563C25.9494 41.5204 27.8786 42.174 28.4373 41.784C28.4584 41.7629 28.6271 41.6364 28.6271 41.1831C28.6271 39.9391 28.9644 39.0325 29.6602 38.3895C30.5457 37.5566 32.0006 37.2404 34.4463 37.388C35.4794 37.4407 36.2595 37.1771 36.8182 36.6184C37.8935 35.5642 37.8197 33.7721 37.8197 33.751V27.9423C37.8197 27.7737 37.9146 27.605 38.0622 27.5101C38.1781 27.4574 38.3468 27.3625 38.5893 27.2466C39.0004 27.0568 39.5908 26.7406 40.4552 26.2873C40.8874 26.0448 41.1194 25.7812 41.1721 25.4755C41.3407 24.59 40.139 23.1774 39.1691 22.081C38.2414 20.9846 37.4507 20.0464 37.4507 19.2557V18.2964C37.4507 9.85229 30.5879 3 22.1543 3C13.7207 3 6.85791 9.86283 6.85791 18.2964C6.85791 20.7316 7.40609 23.0825 8.53408 25.2541C12.9828 31.2525 12.2659 36.5657 11.8337 38.3578L11.7916 38.3684Z" stroke="#9FCD56" stroke-width="1.2" stroke-linecap="round" stroke-linejoin="round"/>
<path fill-rule="evenodd" clip-rule="evenodd" d="M22.0067 27.3204C16.3667 27.3204 11.7704 22.703 11.7704 17.063C11.7704 11.4231 16.3562 6.82675 22.0067 6.82675C27.6572 6.82675 32.264 11.4125 32.264 17.063C32.264 22.7135 27.6783 27.3204 22.0067 27.3204Z" stroke="#9FCD56" stroke-width="1.2" stroke-linecap="round" stroke-linejoin="round"/>
<path fill-rule="evenodd" clip-rule="evenodd" d="M16.0926 18.8446C15.1017 18.8446 14.311 18.0434 14.311 17.063C14.311 16.0826 15.0911 15.2814 16.0926 15.2814C17.0941 15.2814 17.8531 16.0826 17.8531 17.063C17.8531 18.0434 17.073 18.8446 16.0926 18.8446Z" stroke="#9FCD56" stroke-width="1.2" stroke-linecap="round" stroke-linejoin="round"/>
<path fill-rule="evenodd" clip-rule="evenodd" d="M22.0067 18.8446C21.0263 18.8446 20.2462 18.0434 20.2462 17.063C20.2462 16.0826 21.0263 15.2814 22.0067 15.2814C22.9871 15.2814 23.7883 16.0826 23.7883 17.063C23.7883 18.0434 23.0082 18.8446 22.0067 18.8446Z" stroke="#9FCD56" stroke-width="1.2" stroke-linecap="round" stroke-linejoin="round"/>
<path fill-rule="evenodd" clip-rule="evenodd" d="M27.9313 18.8446C26.9509 18.8446 26.1708 18.0434 26.1708 17.063C26.1708 16.0826 26.9509 15.2814 27.9313 15.2814C28.9117 15.2814 29.7129 16.0826 29.7129 17.063C29.7129 18.0434 28.9328 18.8446 27.9313 18.8446Z" stroke="#9FCD56" stroke-width="1.2" stroke-linecap="round" stroke-linejoin="round"/>
</svg>
