<svg width="48" height="44" viewBox="0 0 48 44" fill="none" xmlns="http://www.w3.org/2000/svg">
<path d="M4.48047 29.0623C9.57047 40.5823 17.7705 43.3423 21.7405 40.5023C30.9905 33.9023 9.58047 14.6323 21.7405 5.96232C29.2005 0.642317 36.8305 7.05232 40.8805 14.3023" stroke="#9FCD56" stroke-width="1.2" stroke-miterlimit="10" stroke-dasharray="3.02 2.02"/>
<path d="M3.20117 25.7932C3.36117 26.2732 3.53117 26.7432 3.71117 27.2032M41.3496 15.1931C41.5796 15.6431 41.7996 16.0931 41.9996 16.5431M36.6406 14.1832L47.2206 18.8032M44.2411 11.2031L39.6211 21.7831M4.26 24.2831C4.26 25.1834 3.53022 25.9131 2.63 25.9131C1.72978 25.9131 1 25.1834 1 24.2831C1 23.3829 1.72978 22.6531 2.63 22.6531C3.53022 22.6531 4.26 23.3829 4.26 24.2831Z" stroke="#9FCD56" stroke-width="1.2" stroke-miterlimit="10"/>
</svg>
