<svg width="48" height="44" viewBox="0 0 48 44" fill="none" xmlns="http://www.w3.org/2000/svg">
<path d="M34.4293 21.2578H43L41.6906 26.2249H34.4293M34.2995 31.192H40.3812L39.061 36.1591M39.061 36.1591H32.6546M39.061 36.1591H32.0377M13.1216 21.2578H4.54004L5.84945 26.2249H13.1216M13.2514 31.192H7.16962L8.47903 36.1591H15.5131M24.0946 22.6862L25.3283 26.4846H29.3215C29.6461 26.4846 29.776 26.8958 29.5163 27.0798L26.2806 29.4281L27.5143 33.2265C27.6117 33.5295 27.2654 33.7892 27.0057 33.5944L23.77 31.2461L20.5343 33.5944C20.2746 33.7784 19.9283 33.5295 20.0257 33.2265L21.2594 29.4281L18.0237 27.0798C17.764 26.8958 17.8939 26.4846 18.2185 26.4846H22.2117L23.4453 22.6862C23.5427 22.3832 23.9756 22.3832 24.073 22.6862H24.0946ZM23.77 41.8946C17.5151 40.3795 13.1107 34.7848 13.1107 28.3459V17.7732H34.4184V28.3459C34.4184 34.7739 30.014 40.3795 23.7591 41.8946H23.77ZM23.77 2.50391L25.2201 5.43656L28.4666 5.91271L26.1183 8.19608L26.681 11.4317L23.77 9.90589L20.8698 11.4317L21.4217 8.2069L19.0734 5.91271L22.3199 5.43656L23.77 2.50391ZM35.7821 5.47985L37.243 8.42333L40.4895 8.88866L38.1412 11.1828L38.6931 14.4185L35.7929 12.8927L32.8819 14.4185L33.4338 11.1828L31.0855 8.89948L34.332 8.42333L35.7821 5.47985ZM11.758 5.47985L10.2971 8.42333L7.0506 8.88866L9.39889 11.1828L8.84698 14.4185L11.7472 12.8927L14.6582 14.4185L14.1063 11.1828L16.4546 8.89948L13.2081 8.42333L11.758 5.47985Z" stroke="#194457" stroke-width="1.2" stroke-miterlimit="10" stroke-linejoin="round"/>
</svg>
