<svg width="48" height="44" viewBox="0 0 48 44" fill="none" xmlns="http://www.w3.org/2000/svg">
<path d="M38.27 21.9492C38.27 29.8303 31.8811 36.2192 24 36.2192M38.27 21.9492C38.27 14.0681 31.8811 7.6792 24 7.6792M38.27 21.9492L33.54 21.9492M24 36.2192C16.1189 36.2192 9.72998 29.8303 9.72998 21.9492C9.72998 14.0681 16.1189 7.6792 24 7.6792M24 36.2192L24 31.4892M24 7.6792L24 12.4192M18.16 29.4892C19.78 30.7392 21.8 31.4892 24.01 31.4892C29.28 31.4892 33.55 27.2192 33.55 21.9492C33.55 19.7492 32.8 17.7192 31.55 16.0992M29.85 14.4192C28.23 13.1692 26.21 12.4192 24 12.4192M24 12.4192C18.73 12.4192 14.46 16.6892 14.46 21.9592C14.46 24.1592 15.21 26.1892 16.46 27.8092M14.47 21.9492H9.73999M21.5 19.4492L34.09 11.8592L26.51 24.4592M21.5 19.4492L13.91 32.0392L26.51 24.4592M21.5 19.4492L26.51 24.4592M43 21.9492C43 32.4426 34.4934 40.9492 24 40.9492C13.5066 40.9492 5 32.4426 5 21.9492C5 11.4558 13.5066 2.94922 24 2.94922C34.4934 2.94922 43 11.4558 43 21.9492Z" stroke="#194457" stroke-width="1.2" stroke-miterlimit="10"/>
</svg>
