<svg width="48" height="44" viewBox="0 0 48 44" fill="none" xmlns="http://www.w3.org/2000/svg">
<path d="M29.22 24.79H43.23M5 24.79H19.01M33.47 38.45H14.75C14.31 38.45 13.96 38.8 13.96 39.24V40.55C13.96 40.99 14.31 41.34 14.75 41.34H33.47C33.91 41.34 34.26 40.99 34.26 40.55V39.24C34.26 38.8 33.91 38.45 33.47 38.45ZM30.37 38.45C29.92 37.11 28.65 36.14 27.16 36.14H21.06C19.57 36.14 18.31 37.11 17.85 38.45H30.37ZM25.4001 31.78C25.0701 32.11 24.6101 32.31 24.1101 32.31C23.6101 32.31 23.1501 32.11 22.8201 31.78V36.14H25.4001V31.78ZM24.12 6.31C24.62 6.31 25.08 6.51 25.41 6.84V4.04C25.41 3.47 24.95 3 24.38 3H23.87C23.3 3 22.84 3.46 22.84 4.04V6.84C23.17 6.51 23.63 6.31 24.13 6.31H24.12ZM22.2701 9.70996H16.2201C15.4201 9.70996 14.6301 9.79996 13.8501 9.98996C12.8701 10.22 11.9101 10.49 10.9701 10.79C10.2001 11.04 10.3801 12.18 11.1901 12.18H22.2701V9.70996ZM37.26 10.78C36.32 10.48 35.36 10.21 34.38 9.97995C33.6 9.78995 32.81 9.69995 32.01 9.69995H25.96V12.17H37.04C37.85 12.17 38.03 11.03 37.26 10.78ZM18.26 24.79C17.81 26.66 16.54 28.01 15.05 28.01H8.95005C7.46005 28.01 6.20005 26.66 5.74005 24.79H18.26ZM36.5501 12.18H35.8901L31.3101 24.79H41.1201L36.5401 12.18H36.5501ZM11.68 12.18L7.10004 24.79H16.91L12.33 12.18H11.67H11.68ZM39.28 28.01C40.77 28.01 42.03 26.66 42.49 24.79H29.97C30.42 26.66 31.69 28.01 33.18 28.01H39.28ZM25.96 8.16C25.96 7.14 25.13 6.31 24.11 6.31C23.09 6.31 22.26 7.14 22.26 8.16V30.45C22.26 31.47 23.09 32.3 24.11 32.3C25.13 32.3 25.96 31.47 25.96 30.45V8.16Z" stroke="#9FCD56" stroke-width="1.2" stroke-miterlimit="10"/>
</svg>
