<svg width="48" height="44" viewBox="0 0 48 44" fill="none" xmlns="http://www.w3.org/2000/svg">
<path d="M26.5092 25.7805C25.8177 25.7805 25.2583 26.3398 25.2583 27.0313C25.2583 27.0313 25.2583 27.0517 25.2583 27.0619V31.2518M10.6239 10.485L12.2308 11.9088L14.8546 8.50188M25.2685 35.0757V39.2657C25.2787 39.9471 25.838 40.4962 26.5194 40.4962H38.7537C39.4453 40.4962 40.0046 39.9369 40.0046 39.2453V36.8859M39.9944 29.8484V27.0212C39.9944 26.3296 39.4351 25.7703 38.7435 25.7703H34.5434M21.1192 8.44087H19.7259V4.25089C19.7259 3.55934 19.1666 3 18.475 3H6.24072C5.60002 3 5.07119 3.47798 5 4.09834V16.6073C5.07119 17.2276 5.60002 17.7158 6.24072 17.7158H10.4409V19.0989C10.4409 20.1565 11.3053 21.021 12.363 21.021C13.4206 21.021 14.2851 20.1667 14.2851 19.0989V17.7158H18.4852C19.1768 17.7158 19.7361 17.1564 19.7361 16.4649V12.2749H21.1294C22.187 12.2749 23.0515 11.4206 23.0515 10.3528C23.0515 9.28496 22.187 8.43069 21.1294 8.43069L21.1192 8.44087ZM26.6516 31.2417H25.2583V27.0517C25.2583 26.3601 24.699 25.8008 24.0074 25.8008H19.8073V27.1839C19.8073 28.2416 18.9429 29.106 17.8852 29.106C16.8275 29.106 15.9631 28.2517 15.9631 27.1839V25.8008H11.7629C11.1222 25.8008 10.5934 26.289 10.5222 26.9093V39.4182C10.5934 40.0386 11.1222 40.5166 11.7629 40.5166H23.9973C24.6888 40.5166 25.2482 39.9572 25.2482 39.2657V35.0757H26.6414C27.6991 35.0757 28.5635 34.2214 28.5635 33.1536C28.5635 32.0858 27.6991 31.2315 26.6414 31.2315L26.6516 31.2417ZM41.3877 16.4954H39.9944V12.3054C39.9944 11.6139 39.4351 11.0545 38.7435 11.0545H26.5092C25.8177 11.0545 25.2583 11.6139 25.2583 12.3054C25.2583 12.3054 25.2583 12.3258 25.2583 12.3359V16.5259H26.6516C27.7093 16.5259 28.5737 17.3802 28.5737 18.448C28.5737 19.5158 27.7093 20.3701 26.6516 20.3701H25.2583V24.5601C25.2685 25.2415 25.8278 25.7906 26.5092 25.7906H30.7094V27.1737C30.7094 28.2314 31.5738 29.0958 32.6315 29.0958C33.6891 29.0958 34.5536 28.2416 34.5536 27.1737V25.7906H38.7537C39.4453 25.7906 40.0046 25.2313 40.0046 24.5397V20.3498H41.3979C42.4555 20.3498 43.32 19.4955 43.32 18.4276C43.32 17.3598 42.4555 16.5055 41.3979 16.5055L41.3877 16.4954Z" stroke="#194457" stroke-width="1.2" stroke-miterlimit="10"/>
</svg>
