<svg width="48" height="44" viewBox="0 0 48 44" fill="none" xmlns="http://www.w3.org/2000/svg">
<path d="M16.8668 24.8924C17.7368 24.2024 17.8768 22.9324 17.1868 22.0624C16.4968 21.1924 15.2168 21.0524 14.3568 21.7424L11.1668 24.2924C10.2968 24.9824 10.1568 26.2624 10.8468 27.1224C11.5368 27.9824 12.8168 28.1324 13.6768 27.4324M16.1968 30.5924C15.3268 31.2824 15.1868 32.5624 15.8768 33.4224C16.5668 34.2924 17.8468 34.4324 18.7068 33.7424L21.8968 31.1924C22.7668 30.5024 22.9068 29.2224 22.2168 28.3624C21.5268 27.5024 20.2468 27.3524 19.3868 28.0524M18.7168 33.7424C17.8468 34.4324 17.7068 35.7124 18.4068 36.5724C19.0968 37.4324 20.3768 37.5824 21.2368 36.8824L23.0268 35.4524C23.8968 34.7624 24.0368 33.4924 23.3468 32.6224C22.6568 31.7524 21.3768 31.6124 20.5168 32.3024M31.9968 25.6224L34.2768 27.4424M34.2768 27.4424C35.1468 28.1324 35.2868 29.4124 34.5968 30.2724C33.9068 31.1324 32.6268 31.2824 31.7668 30.5824L29.2868 28.6024M34.2768 27.4424C35.1468 28.1324 36.4168 27.9924 37.1068 27.1324C37.7968 26.2724 37.6568 24.9924 36.7968 24.3024L34.0268 22.0924C32.6868 21.0224 31.1668 19.8324 29.7268 18.8024C27.1168 16.9324 25.8368 15.6924 22.5668 16.3524C20.0968 16.8524 18.0968 16.0924 17.5768 13.9624C17.2468 12.5924 18.4168 11.9524 20.7368 11.7424L24.4368 11.4124C25.1668 11.3424 25.6068 11.2824 26.7868 11.6924L29.0168 12.4724C30.5268 13.0024 30.3268 13.1424 31.8868 12.6824L34.1768 12.0224M29.2868 28.6124L31.7668 30.5924C32.6368 31.2824 32.7768 32.5624 32.0768 33.4224C31.3868 34.2924 30.1068 34.4324 29.2468 33.7424L26.7768 31.7624M26.7668 31.7624L28.0068 32.7524C28.8768 33.4424 29.0168 34.7224 28.3268 35.5824C27.6368 36.4524 26.3568 36.5924 25.4968 35.9024L23.6968 34.4624M43.3168 17.6724L44.7968 20.2924C45.1368 20.9024 44.9268 21.6824 44.3168 22.0224L42.0368 23.2924C41.4268 23.6324 40.6468 23.4224 40.3068 22.8124L33.7168 11.1624C33.3668 10.5524 33.5868 9.77237 34.1968 9.43237L36.4868 8.16237C37.0968 7.82237 37.8768 8.03237 38.2168 8.64237L39.5568 11.0024M36.6368 24.1724C37.1768 23.0124 38.3468 22.1424 39.6968 21.7624M17.5968 13.1024L13.7768 11.9924M11.3268 24.1724C10.7868 23.0124 9.60681 22.1424 8.25681 21.7624M13.7668 9.43237L11.4868 8.16237C10.8768 7.82237 10.0968 8.03237 9.75681 8.64237L3.16681 20.2924C2.81681 20.9024 3.03681 21.6824 3.64681 22.0224L5.92681 23.2924C6.53681 23.6324 7.31681 23.4224 7.65681 22.8124L14.2468 11.1624C14.5968 10.5524 14.3768 9.77237 13.7668 9.43237ZM13.6768 27.4424L18.2768 23.7624C19.1468 23.0724 20.4168 23.2124 21.1068 24.0824C21.7968 24.9424 21.6568 26.2224 20.7868 26.9124L16.1868 30.5824C15.3168 31.2724 14.0468 31.1324 13.3568 30.2724C12.6668 29.4124 12.8068 28.1324 13.6668 27.4424H13.6768Z" stroke="#194457" stroke-width="1.2" stroke-linejoin="round"/>
</svg>
