<svg width="48" height="44" viewBox="0 0 48 44" fill="none" xmlns="http://www.w3.org/2000/svg">
<path d="M21.9918 13.7182L22.4443 8.84527C21.2846 8.2555 20.4832 7.0276 20.4832 5.60634C20.4832 3.61463 22.0578 2 24 2C25.9423 2 27.5168 3.61463 27.5168 5.60634C27.5168 7.0276 26.7154 8.2555 25.5557 8.84527L26.0083 13.7762M20.7944 28.4722L24 30.3673L27.2245 28.4626M26.3382 17.2278L27.8091 33.2001C32.4101 33.2775 34.8992 28.0855 34.8992 28.0855L32.891 27.5344L37.9163 22.8935L40 29.4874L37.9069 28.917C36.7755 39.1752 27.2339 38.1504 24 41.4667C20.7661 38.1504 11.2245 39.1656 10.0931 28.917L8 29.4874L10.0837 22.8935L15.109 27.5344L13.1008 28.0855C13.1008 28.0855 15.5899 33.2775 20.1909 33.2001L21.6618 17.2375M17.3436 17.1118C16.8533 17.8369 16.0236 18.3107 15.0996 18.3107C13.591 18.3107 12.3654 17.0538 12.3654 15.5068C12.3654 13.9599 13.591 12.703 15.0996 12.703C16.033 12.703 16.8533 13.1767 17.3436 13.9019H30.647C31.1373 13.1767 31.967 12.703 32.891 12.703C34.3995 12.703 35.6252 13.9599 35.6252 15.5068C35.6252 17.0538 34.3995 18.3107 32.891 18.3107C31.9576 18.3107 31.1373 17.8369 30.647 17.1118H17.3436ZM24.5658 5.60634C24.5658 5.92673 24.3125 6.18645 24.0001 6.18645C23.6876 6.18645 23.4343 5.92673 23.4343 5.60634C23.4343 5.28596 23.6876 5.02623 24.0001 5.02623C24.3125 5.02623 24.5658 5.28596 24.5658 5.60634Z" stroke="#9ECE56" stroke-width="1.2" stroke-miterlimit="10"/>
</svg>
