<svg width="48" height="44" viewBox="0 0 48 44" fill="none" xmlns="http://www.w3.org/2000/svg">
<path d="M7.15136 17.3978C8.46205 12.7454 12.174 8.4231 16.4263 6.30198M28.5826 5.16138C34.2656 6.76222 39.2283 11.7148 40.8191 17.3978M40.8191 26.5827C39.5084 31.2351 35.7965 35.5574 31.5442 37.6785M19.3978 38.8291C13.7148 37.2283 8.75221 32.2757 7.16138 26.5927M20.8986 25.8523V28.1735M20.8986 28.1735H17.807V26.6327C17.807 24.0713 19.8781 22.0002 22.4394 22.0002H25.5311C28.0924 22.0002 30.1635 24.0713 30.1635 26.6327V28.1735H20.8886H20.8986ZM27.0819 28.1735V25.8523M11.7738 18.9286C13.1645 13.5158 18.2872 9.40361 23.9802 9.40361C30.7938 9.40361 36.5769 15.1867 36.5769 22.0002C36.5769 28.8138 30.5937 34.5969 23.9802 34.5969C18.4073 34.5969 13.2146 30.6348 11.7738 25.0719M28.6227 37.9086C29.0529 37.9086 29.3931 38.2588 29.3931 38.679C29.3931 39.0993 29.0429 39.4494 28.6227 39.4494C28.2025 39.4494 27.8523 39.0993 27.8523 38.679C27.8523 38.2588 28.2025 37.9086 28.6227 37.9086ZM19.3478 4.53105C19.778 4.53105 20.1182 4.88123 20.1182 5.30145C20.1182 5.72167 19.768 6.07186 19.3478 6.07186C18.9276 6.07186 18.5774 5.72167 18.5774 5.30145C18.5774 4.88123 18.9276 4.53105 19.3478 4.53105ZM11.3936 21.2198C10.9634 21.2198 10.6232 21.57 10.6232 21.9902C10.6232 22.4105 10.9734 22.7606 11.3936 22.7606C11.8138 22.7606 12.164 22.4105 12.164 21.9902C12.164 21.57 11.8138 21.2198 11.3936 21.2198ZM25.5311 4.53105C25.5311 5.38149 24.8407 6.07186 23.9802 6.07186C23.1198 6.07186 22.4394 5.38149 22.4394 4.53105C22.4394 3.6806 23.1298 2.99023 23.9802 2.99023C24.8307 2.99023 25.5311 3.6806 25.5311 4.53105ZM43.0002 21.9902C43.0002 22.8407 42.3099 23.5311 41.4594 23.5311C40.609 23.5311 39.9186 22.8407 39.9186 21.9902C39.9186 21.1398 40.609 20.4494 41.4594 20.4494C42.3099 20.4494 43.0002 21.1398 43.0002 21.9902ZM8.07184 21.9902C8.07184 22.8407 7.38149 23.5311 6.53104 23.5311C5.68059 23.5311 4.99023 22.8407 4.99023 21.9902C4.99023 21.1398 5.68059 20.4494 6.53104 20.4494C7.38149 20.4494 8.07184 21.1398 8.07184 21.9902ZM25.5311 39.4594C25.5311 40.3099 24.8407 41.0003 23.9802 41.0003C23.1198 41.0003 22.4394 40.3099 22.4394 39.4594C22.4394 38.609 23.1298 37.9186 23.9802 37.9186C24.8307 37.9186 25.5311 38.609 25.5311 39.4594ZM27.0819 17.3578C27.0819 19.0687 25.7011 20.4494 23.9902 20.4494C22.2793 20.4494 20.8986 19.0687 20.8986 17.3578C20.8986 15.6469 22.2793 14.2662 23.9902 14.2662C25.7011 14.2662 27.0819 15.6469 27.0819 17.3578Z" stroke="#9FCD56" stroke-width="1.2" stroke-linecap="round" stroke-linejoin="round"/>
</svg>
