<svg width="48" height="44" viewBox="0 0 48 44" fill="none" xmlns="http://www.w3.org/2000/svg">
<path d="M39.0003 15.2332V15.8332C39.3038 15.8332 39.5595 15.6066 39.5959 15.3053C39.6324 15.004 39.4382 14.7229 39.1435 14.6505L39.0003 15.2332ZM37.1745 14.7843L37.3177 14.2017C37.2987 14.197 37.2794 14.1932 37.2599 14.1904L37.1745 14.7843ZM36.9516 14.6882L37.3372 14.2285C37.3208 14.2147 37.3037 14.2019 37.2859 14.19L36.9516 14.6882ZM36.7817 14.5172L36.2696 14.8297C36.2734 14.836 36.2774 14.8423 36.2815 14.8484L36.7817 14.5172ZM35.7839 12.8821L36.2961 12.5696C36.1871 12.391 35.9931 12.2821 35.7839 12.2821C35.5748 12.2821 35.3807 12.391 35.2718 12.5696L35.7839 12.8821ZM34.7861 14.5172L35.2864 14.8484C35.2904 14.8423 35.2944 14.836 35.2983 14.8297L34.7861 14.5172ZM34.4146 14.7843L34.5523 15.3683C34.5583 15.3669 34.5642 15.3654 34.5701 15.3638L34.4146 14.7843ZM32.5569 15.2225L32.4192 14.6385C32.2157 14.6865 32.0518 14.837 31.9867 15.0357C31.9216 15.2344 31.9647 15.4526 32.1003 15.6117L32.5569 15.2225ZM33.7777 16.6545L34.2399 16.2718L34.2343 16.2652L33.7777 16.6545ZM33.9369 17.114L33.3414 17.0401C33.3403 17.0491 33.3394 17.0582 33.3387 17.0673L33.9369 17.114ZM33.7883 19.0162L33.1901 18.9695C33.1739 19.1774 33.2667 19.3788 33.4354 19.5014C33.604 19.6241 33.8242 19.6504 34.017 19.5709L33.7883 19.0162ZM35.5504 18.2895L35.7792 18.8443L35.7881 18.8404L35.5504 18.2895ZM35.9962 18.2895L35.7585 18.8405L35.7675 18.8442L35.9962 18.2895ZM37.7583 19.0162L37.5296 19.5709C37.7223 19.6504 37.9426 19.6241 38.1112 19.5014C38.2799 19.3788 38.3727 19.1774 38.3565 18.9695L37.7583 19.0162ZM37.6097 17.114L37.011 17.1536L37.0115 17.1607L37.6097 17.114ZM37.7477 16.6758L37.2913 16.2863C37.2827 16.2964 37.2745 16.3068 37.2665 16.3174L37.7477 16.6758ZM38.979 15.2332V14.6332C38.8035 14.6332 38.6367 14.7101 38.5227 14.8436L38.979 15.2332ZM15.9549 15.2332V15.8332C16.2584 15.8332 16.514 15.6066 16.5505 15.3053C16.587 15.004 16.3928 14.7229 16.0981 14.6505L15.9549 15.2332ZM14.1291 14.7843L14.2723 14.2017C14.2532 14.197 14.2339 14.1932 14.2145 14.1904L14.1291 14.7843ZM13.9062 14.6882L14.2918 14.2285C14.2754 14.2147 14.2583 14.2019 14.2405 14.19L13.9062 14.6882ZM13.7363 14.5172L13.2242 14.8297C13.228 14.836 13.232 14.8423 13.2361 14.8484L13.7363 14.5172ZM12.7385 12.8821L13.2507 12.5696C13.1417 12.391 12.9477 12.2821 12.7385 12.2821C12.5294 12.2821 12.3353 12.391 12.2263 12.5696L12.7385 12.8821ZM11.7407 14.5172L12.2409 14.8484C12.245 14.8423 12.249 14.836 12.2528 14.8297L11.7407 14.5172ZM11.3798 14.7843L11.5175 15.3683C11.5269 15.3661 11.5363 15.3636 11.5456 15.3609L11.3798 14.7843ZM9.52213 15.2225L9.3844 14.6385C9.18134 14.6864 9.01774 14.8363 8.95236 15.0344C8.88698 15.2326 8.9292 15.4504 9.06386 15.6098L9.52213 15.2225ZM10.7323 16.6545L11.1945 16.2719L11.1905 16.2672L10.7323 16.6545ZM10.8915 17.114L10.296 17.0401C10.2949 17.0491 10.294 17.0582 10.2933 17.0673L10.8915 17.114ZM10.7429 19.0162L10.1447 18.9695C10.1284 19.1774 10.2213 19.3788 10.39 19.5014C10.5586 19.6241 10.7788 19.6504 10.9716 19.5709L10.7429 19.0162ZM12.505 18.2895L12.7338 18.8443L12.7427 18.8404L12.505 18.2895ZM12.9508 18.2895L12.681 18.8254C12.6945 18.8322 12.7082 18.8385 12.7221 18.8442L12.9508 18.2895ZM14.7129 19.0162L14.4842 19.5709C14.6769 19.6504 14.8972 19.6241 15.0658 19.5014C15.2345 19.3788 15.3273 19.1774 15.3111 18.9695L14.7129 19.0162ZM14.5643 17.114L13.9656 17.1536L13.9661 17.1607L14.5643 17.114ZM14.7023 16.6758L14.2459 16.2863C14.2373 16.2964 14.2291 16.3068 14.2211 16.3174L14.7023 16.6758ZM15.9336 15.2332V14.6332C15.7581 14.6332 15.5913 14.7101 15.4773 14.8436L15.9336 15.2332ZM30.4232 10.4777L30.2823 11.0609C30.3285 11.072 30.3758 11.0777 30.4232 11.0777V10.4777ZM26.708 9.57999L26.8489 8.99677C26.8271 8.99152 26.8051 8.98748 26.7829 8.98469L26.708 9.57999ZM26.4744 9.48382L26.8601 9.02416C26.8331 9.00152 26.8041 8.9813 26.7736 8.96374L26.4744 9.48382ZM26.3046 9.30215L26.8264 9.00597C26.823 8.99999 26.8195 8.99407 26.8159 8.98821L26.3046 9.30215ZM24.2771 6L24.7884 5.68606C24.6793 5.50832 24.4857 5.4 24.2771 5.4C24.0685 5.4 23.8749 5.50832 23.7658 5.68606L24.2771 6ZM22.2496 9.30215L22.7499 9.63342C22.7537 9.62771 22.7573 9.62193 22.7609 9.61609L22.2496 9.30215ZM22.0904 9.47312L22.4248 9.97132C22.4425 9.9594 22.4596 9.94653 22.476 9.93278L22.0904 9.47312ZM21.8781 9.56931L22.0191 10.1525C22.0274 10.1505 22.0357 10.1483 22.044 10.1459L21.8781 9.56931ZM18.1203 10.4777L17.9794 9.89445C17.7767 9.94343 17.6141 10.0941 17.5497 10.2923C17.4853 10.4906 17.5284 10.7081 17.6636 10.8668L18.1203 10.4777ZM20.6149 13.4058L21.0771 13.0231L21.0716 13.0167L20.6149 13.4058ZM20.7423 13.6195L20.16 13.7641C20.1676 13.795 20.1777 13.8252 20.1902 13.8545L20.7423 13.6195ZM20.7741 13.8653L20.1787 13.7914C20.1775 13.8006 20.1766 13.8099 20.1759 13.8192L20.7741 13.8653ZM20.4769 17.7231L19.8787 17.677C19.8627 17.8848 19.9556 18.086 20.1242 18.2085C20.2928 18.331 20.5129 18.3573 20.7056 18.2778L20.4769 17.7231ZM24.0542 16.2484L24.2829 16.8031C24.291 16.7998 24.299 16.7962 24.307 16.7925L24.0542 16.2484ZM24.5 16.2484L24.2472 16.7925C24.2552 16.7962 24.2632 16.7998 24.2714 16.8031L24.5 16.2484ZM28.0773 17.7231L27.8486 18.2778C28.0414 18.3573 28.2615 18.331 28.4301 18.2084C28.5987 18.0858 28.6916 17.8845 28.6755 17.6767L28.0773 17.7231ZM27.7589 13.6195L27.302 13.2305C27.1992 13.3513 27.1484 13.5078 27.1607 13.6659L27.7589 13.6195ZM30.4339 10.4777L30.8907 10.8666C31.0424 10.6885 31.0767 10.4384 30.9786 10.226C30.8804 10.0136 30.6678 9.87766 30.4339 9.87766V10.4777ZM6.53927 23.6649L6.75249 23.104L6.7496 23.1029L6.53927 23.6649ZM4.29948 24.4129L4.80456 24.7368L4.80517 24.7358L4.29948 24.4129ZM4.77717 26.967L5.13143 26.4827L5.13048 26.482L4.77717 26.967ZM14.4475 34.0415L14.802 33.5573L14.8018 33.5572L14.4475 34.0415ZM21.7295 35.3559L21.5671 34.7783L21.5663 34.7785L21.7295 35.3559ZM24.086 34.6933L23.9247 34.1154L23.9236 34.1157L24.086 34.6933ZM27.3767 34.4369L27.4782 33.8455C27.4675 33.8437 27.4567 33.8421 27.446 33.8409L27.3767 34.4369ZM28.6718 30.3333L28.306 30.8089L28.3089 30.8111L28.6718 30.3333ZM25.9861 29.5425L25.9398 28.9442L25.9377 28.9444L25.9861 29.5425ZM16.889 30.2798L16.9363 30.8779L16.9375 30.8779L16.889 30.2798ZM14.9464 28.7623L14.3548 28.8624L14.3549 28.8625L14.9464 28.7623ZM16.4325 26.6357L16.33 26.0445L16.3239 26.0456L16.4325 26.6357ZM22.9608 25.5029L23.0634 26.0941L23.0653 26.0938L22.9608 25.5029ZM25.1369 24.6053L25.4787 25.0984L25.4813 25.0966L25.1369 24.6053ZM31.506 24.7121L31.8675 24.2333L31.8662 24.2323L31.506 24.7121ZM34.0006 36.5742L33.4319 36.3828C33.3263 36.6965 33.4948 37.0365 33.8084 37.1426L34.0006 36.5742ZM41.1764 39L40.9842 39.5684C41.1351 39.6194 41.3001 39.6083 41.4428 39.5376C41.5855 39.4669 41.6942 39.3423 41.745 39.1914L41.1764 39ZM44 30.6111L44.5687 30.8025C44.6743 30.4887 44.5058 30.1487 44.1922 30.0427L44 30.6111ZM36.8242 28.1852L37.0163 27.6168C36.8655 27.5658 36.7005 27.5769 36.5578 27.6476C36.4151 27.7183 36.3063 27.8429 36.2555 27.9938L36.8242 28.1852ZM38.2335 35.2069C38.5171 35.3782 38.886 35.2872 39.0573 35.0036C39.2287 34.72 39.1377 34.3511 38.8541 34.1798L38.2335 35.2069ZM38.801 34.1477C38.5174 33.9764 38.1485 34.0674 37.9772 34.351C37.8058 34.6346 37.8968 35.0035 38.1805 35.1748L38.801 34.1477ZM39.1435 14.6505L37.3177 14.2017L37.0313 15.367L38.8571 15.8158L39.1435 14.6505ZM37.2599 14.1904C37.2726 14.1923 37.2816 14.195 37.2897 14.1984C37.2976 14.2017 37.315 14.2099 37.3372 14.2285L36.5659 15.1478C36.7309 15.2862 36.9264 15.3548 37.0891 15.3782L37.2599 14.1904ZM37.2859 14.19C37.289 14.192 37.2898 14.1928 37.2888 14.192C37.2879 14.1912 37.2863 14.1898 37.2844 14.1879C37.2825 14.186 37.2811 14.1843 37.2803 14.1834C37.2794 14.1823 37.2801 14.183 37.282 14.1859L36.2815 14.8484C36.3675 14.9783 36.4875 15.0993 36.6172 15.1863L37.2859 14.19ZM37.2939 14.2046L36.2961 12.5696L35.2718 13.1947L36.2696 14.8297L37.2939 14.2046ZM35.2718 12.5696L34.2739 14.2046L35.2983 14.8297L36.2961 13.1947L35.2718 12.5696ZM34.2858 14.1859C34.2817 14.1922 34.2779 14.1957 34.275 14.1978C34.2723 14.1997 34.2677 14.2025 34.259 14.2048L34.5701 15.3638C34.8751 15.2819 35.1232 15.0948 35.2864 14.8484L34.2858 14.1859ZM34.2768 14.2003L32.4192 14.6385L32.6947 15.8065L34.5523 15.3683L34.2768 14.2003ZM32.1003 15.6117L33.321 17.0437L34.2343 16.2652L33.0135 14.8332L32.1003 15.6117ZM33.3155 17.0371C33.3243 17.0477 33.3388 17.07 33.353 17.1032L34.4571 16.6332C34.4076 16.5169 34.3372 16.3895 34.2398 16.2719L33.3155 17.0371ZM33.353 17.1032C33.3396 17.0717 33.3403 17.0495 33.3414 17.0401L34.5323 17.1879C34.5547 17.0075 34.5342 16.8143 34.4571 16.6332L33.353 17.1032ZM33.3387 17.0673L33.1901 18.9695L34.3865 19.0629L34.535 17.1607L33.3387 17.0673ZM34.017 19.5709L35.7791 18.8442L35.3216 17.7348L33.5595 18.4615L34.017 19.5709ZM35.7881 18.8404C35.78 18.8439 35.7726 18.8458 35.768 18.8467C35.7639 18.8474 35.7648 18.8468 35.7733 18.8468V17.6468C35.6397 17.6468 35.4802 17.6663 35.3127 17.7386L35.7881 18.8404ZM35.7733 18.8468C35.7818 18.8468 35.7827 18.8474 35.7786 18.8467C35.774 18.8458 35.7666 18.8439 35.7585 18.8404L36.2339 17.7386C36.0664 17.6663 35.9069 17.6468 35.7733 17.6468V18.8468ZM35.7675 18.8442L37.5296 19.5709L37.9871 18.4615L36.225 17.7348L35.7675 18.8442ZM38.3565 18.9695L38.2079 17.0673L37.0115 17.1607L37.1601 19.0629L38.3565 18.9695ZM38.2084 17.0744C38.2084 17.0737 38.2082 17.0725 38.2095 17.0683C38.2112 17.0633 38.216 17.0516 38.2288 17.0343L37.2665 16.3174C37.1 16.5409 36.9895 16.8286 37.011 17.1536L38.2084 17.0744ZM38.2041 17.0654L39.4354 15.6227L38.5227 14.8436L37.2913 16.2863L38.2041 17.0654ZM38.979 15.8332H39.0003V14.6332H38.979V15.8332ZM16.0981 14.6505L14.2723 14.2017L13.9859 15.367L15.8117 15.8158L16.0981 14.6505ZM14.2145 14.1904C14.2272 14.1923 14.2362 14.195 14.2443 14.1984C14.2522 14.2017 14.2696 14.2099 14.2918 14.2285L13.5205 15.1478C13.6855 15.2862 13.8809 15.3548 14.0437 15.3782L14.2145 14.1904ZM14.2405 14.19C14.2436 14.192 14.2444 14.1928 14.2434 14.1919C14.2425 14.1912 14.2409 14.1898 14.239 14.1878C14.237 14.1859 14.2356 14.1843 14.2348 14.1833C14.2339 14.1823 14.2346 14.183 14.2366 14.1859L13.2361 14.8484C13.3221 14.9784 13.4422 15.0993 13.5718 15.1863L14.2405 14.19ZM14.2485 14.2046L13.2507 12.5696L12.2263 13.1947L13.2242 14.8297L14.2485 14.2046ZM12.2263 12.5696L11.2285 14.2046L12.2528 14.8297L13.2507 13.1947L12.2263 12.5696ZM11.2404 14.1859C11.2311 14.2 11.22 14.206 11.2139 14.2077L11.5456 15.3609C11.8368 15.2772 12.0805 15.0908 12.2409 14.8484L11.2404 14.1859ZM11.242 14.2003L9.3844 14.6385L9.65987 15.8065L11.5175 15.3683L11.242 14.2003ZM9.06386 15.6098L10.274 17.0417L11.1905 16.2672L9.98041 14.8352L9.06386 15.6098ZM10.2701 17.0371C10.2789 17.0477 10.2934 17.07 10.3076 17.1032L11.4117 16.6332C11.3622 16.5169 11.2918 16.3895 11.1945 16.2719L10.2701 17.0371ZM10.3076 17.1032C10.2942 17.0717 10.2949 17.0495 10.296 17.0401L11.4869 17.1879C11.5093 17.0075 11.4888 16.8143 11.4117 16.6332L10.3076 17.1032ZM10.2933 17.0673L10.1447 18.9695L11.341 19.0629L11.4897 17.1607L10.2933 17.0673ZM10.9716 19.5709L12.7337 18.8442L12.2762 17.7348L10.5141 18.4615L10.9716 19.5709ZM12.7427 18.8404C12.7346 18.8439 12.7272 18.8458 12.7226 18.8467C12.7185 18.8474 12.7194 18.8468 12.7279 18.8468V17.6468C12.5942 17.6468 12.4348 17.6663 12.2673 17.7386L12.7427 18.8404ZM12.7279 18.8468C12.738 18.8468 12.7426 18.8476 12.7407 18.8473C12.7393 18.847 12.7337 18.846 12.7247 18.8432C12.7158 18.8405 12.7005 18.8352 12.681 18.8254L13.2206 17.7536C13.034 17.6596 12.8389 17.6468 12.7279 17.6468V18.8468ZM12.7221 18.8442L14.4842 19.5709L14.9417 18.4615L13.1796 17.7348L12.7221 18.8442ZM15.3111 18.9695L15.1625 17.0673L13.9661 17.1607L14.1147 19.0629L15.3111 18.9695ZM15.163 17.0744C15.163 17.0737 15.1627 17.0726 15.1641 17.0684C15.1657 17.0633 15.1706 17.0516 15.1834 17.0343L14.2211 16.3174C14.0547 16.5408 13.9441 16.8286 13.9656 17.1536L15.163 17.0744ZM15.1587 17.0654L16.39 15.6227L15.4773 14.8436L14.2459 16.2863L15.1587 17.0654ZM15.9336 15.8332H15.9549V14.6332H15.9336V15.8332ZM30.5642 9.89444L26.8489 8.99677L26.567 10.1632L30.2823 11.0609L30.5642 9.89444ZM26.7829 8.98469C26.7886 8.98541 26.7966 8.98702 26.8073 8.99136C26.8179 8.99563 26.8372 9.00494 26.8601 9.02416L26.0888 9.94348C26.2584 10.0857 26.4587 10.1534 26.633 10.1753L26.7829 8.98469ZM26.7736 8.96374C26.7966 8.97696 26.8127 8.99167 26.822 9.00195C26.8304 9.01122 26.8313 9.01469 26.8264 9.00597L25.7828 9.59833C25.8578 9.73041 25.9778 9.89035 26.1752 10.0039L26.7736 8.96374ZM26.8159 8.98821L24.7884 5.68606L23.7658 6.31394L25.7933 9.61609L26.8159 8.98821ZM23.7658 5.68606L21.7383 8.98821L22.7609 9.61609L24.7884 6.31394L23.7658 5.68606ZM21.7494 8.97087C21.7494 8.97088 21.7493 8.971 21.7491 8.97125C21.7489 8.9715 21.7486 8.97193 21.7481 8.97256C21.7471 8.97379 21.7452 8.976 21.7421 8.9793C21.7356 8.98616 21.7244 8.99698 21.7048 9.01346L22.476 9.93278C22.5643 9.85877 22.664 9.76313 22.7499 9.63342L21.7494 8.97087ZM21.756 8.97492C21.756 8.97491 21.755 8.97562 21.7527 8.97688C21.7504 8.97813 21.7472 8.97974 21.7431 8.98157C21.7347 8.98535 21.7242 8.98926 21.7122 8.99269L22.044 10.1459C22.1661 10.1108 22.2998 10.0552 22.4248 9.97132L21.756 8.97492ZM21.7371 8.98611L17.9794 9.89445L18.2613 11.0609L22.0191 10.1525L21.7371 8.98611ZM17.6636 10.8668L20.1582 13.7949L21.0716 13.0167L18.5771 10.0886L17.6636 10.8668ZM20.1527 13.7884C20.1596 13.7967 20.1648 13.803 20.1698 13.8091C20.1746 13.815 20.1783 13.8196 20.1812 13.8233C20.1872 13.831 20.1884 13.8331 20.1873 13.8314C20.1861 13.8295 20.1816 13.8223 20.1762 13.8106C20.1706 13.7986 20.1646 13.7829 20.16 13.7641L21.3246 13.4749C21.2654 13.2364 21.1173 13.0718 21.0771 13.0232L20.1527 13.7884ZM20.1902 13.8545C20.1768 13.823 20.1775 13.8008 20.1787 13.7914L21.3695 13.9392C21.3919 13.7588 21.3714 13.5656 21.2943 13.3845L20.1902 13.8545ZM20.1759 13.8192L19.8787 17.677L21.0751 17.7692L21.3723 13.9114L20.1759 13.8192ZM20.7056 18.2778L24.2829 16.8031L23.8255 15.6937L20.2482 17.1684L20.7056 18.2778ZM24.307 16.7925C24.2918 16.7996 24.2818 16.8003 24.2771 16.8003C24.2724 16.8003 24.2624 16.7996 24.2472 16.7925L24.7529 15.7043C24.4545 15.5656 24.0997 15.5656 23.8014 15.7043L24.307 16.7925ZM24.2714 16.8031L27.8486 18.2778L28.306 17.1684L24.7287 15.6937L24.2714 16.8031ZM28.6755 17.6767L28.3571 13.5731L27.1607 13.6659L27.4791 17.7695L28.6755 17.6767ZM28.2157 14.0085L30.8907 10.8666L29.977 10.0887L27.302 13.2305L28.2157 14.0085ZM30.4339 9.87766H30.4232V11.0777H30.4339V9.87766ZM15.2976 26.3527L6.75249 23.104L6.32605 24.2257L14.8712 27.4744L15.2976 26.3527ZM6.7496 23.1029C5.65686 22.6939 4.42409 23.1029 3.79379 24.09L4.80517 24.7358C5.13023 24.2268 5.76572 24.016 6.32894 24.2268L6.7496 23.1029ZM3.79441 24.089C3.0816 25.2006 3.36053 26.6772 4.42386 27.4519L5.13048 26.482C4.58032 26.0812 4.43462 25.3137 4.80456 24.7368L3.79441 24.089ZM4.42291 27.4512L14.0933 34.5257L14.8018 33.5572L5.13143 26.4827L4.42291 27.4512ZM14.0931 34.5256C16.3439 36.1735 19.2205 36.6888 21.8927 35.9333L21.5663 34.7785C19.2494 35.4336 16.7547 34.9871 14.802 33.5573L14.0931 34.5256ZM21.8919 35.9335L24.2484 35.2709L23.9236 34.1157L21.5671 34.7783L21.8919 35.9335ZM24.2473 35.2713C25.2439 34.9931 26.2802 34.9135 27.3075 35.0328L27.446 33.8409C26.2653 33.7037 25.0724 33.7951 23.9247 34.1154L24.2473 35.2713ZM27.2752 35.0282L33.7504 36.1396L33.9534 34.9569L27.4782 33.8455L27.2752 35.0282ZM29.6397 30.315L29.0346 29.8554L28.3089 30.8111L28.9139 31.2706L29.6397 30.315ZM29.0375 29.8576C28.1533 29.1776 27.0504 28.8582 25.9398 28.9443L26.0325 30.1407C26.8538 30.0771 27.6617 30.3134 28.306 30.8089L29.0375 29.8576ZM25.9377 28.9444L16.8405 29.6818L16.9375 30.8779L26.0346 30.1405L25.9377 28.9444ZM16.8416 29.6817C16.2071 29.7319 15.6454 29.2966 15.538 28.6622L14.3549 28.8625C14.5659 30.1089 15.6813 30.9773 16.9363 30.8779L16.8416 29.6817ZM15.538 28.6623C15.4232 27.9832 15.8745 27.3485 16.5411 27.2258L16.3239 26.0456C15.0162 26.2863 14.13 27.5324 14.3548 28.8624L15.538 28.6623ZM16.5351 27.2269L23.0634 26.0941L22.8582 24.9118L16.33 26.0446L16.5351 27.2269ZM23.0653 26.0938C23.9374 25.9395 24.7612 25.5958 25.4787 25.0984L24.7951 24.1122C24.2176 24.5125 23.5553 24.7885 22.8563 24.9121L23.0653 26.0938ZM25.4813 25.0966C27.1897 23.8993 29.4742 23.937 31.1458 25.192L31.8662 24.2323C29.78 22.666 26.9268 22.6182 24.7926 24.1139L25.4813 25.0966ZM31.1445 25.191L36.0274 28.8778L36.7505 27.9202L31.8675 24.2333L31.1445 25.191ZM33.8084 37.1426L40.9842 39.5684L41.3685 38.4316L34.1927 36.0058L33.8084 37.1426ZM41.745 39.1914L44.5687 30.8025L43.4313 30.4197L40.6077 38.8086L41.745 39.1914ZM44.1922 30.0427L37.0163 27.6168L36.632 28.7536L43.8078 31.1795L44.1922 30.0427ZM36.2555 27.9938L33.4319 36.3828L34.5692 36.7656L37.3928 28.3766L36.2555 27.9938ZM38.8541 34.1798L38.801 34.1477L38.1805 35.1748L38.2335 35.2069L38.8541 34.1798Z" fill="#9ECE56"/>
</svg>
