<svg width="48" height="44" viewBox="0 0 48 44" fill="none" xmlns="http://www.w3.org/2000/svg">
<path d="M11.7546 24.4628C11.7546 24.4628 11.7546 24.5314 11.7546 24.5571C12.0491 25.7225 12.3522 26.8794 12.6466 28.0448C12.9843 29.3816 13.3221 30.7099 13.6685 32.0467C13.8417 32.7408 14.0322 33.4264 14.2054 34.1205C14.292 34.4547 14.3006 34.7889 14.2314 35.1317C14.1448 35.5859 13.9369 35.9715 13.6079 36.3057C13.2355 36.6828 12.7765 36.9227 12.2483 36.9827C11.72 37.0427 11.2177 36.9484 10.7501 36.6742C10.1872 36.34 9.80616 35.8687 9.65028 35.226C9.55502 34.8489 9.45976 34.4719 9.36451 34.0948C9.19997 33.3921 9.00945 32.698 8.83625 31.9953C8.64573 31.2155 8.44656 30.4357 8.24738 29.6559C8.0482 28.8675 7.85768 28.0791 7.64985 27.2993C7.44201 26.5109 7.26015 25.7139 7.05231 24.9255C7.00901 24.7627 6.93107 24.5999 6.96571 24.42M12.3608 15.0707C12.3089 15.0536 12.2569 15.0536 12.205 15.0536C10.8453 15.0536 9.4944 15.0536 8.1348 15.0536C7.99624 15.0536 7.85768 15.0193 7.71912 15.0279C6.62798 15.0622 5.64075 15.3792 4.79208 16.0562C4.12527 16.5875 3.62299 17.2474 3.31989 18.0443C3.19 18.3785 3.1034 18.7213 3.05144 19.0812C2.99082 19.484 2.98216 19.8782 3.03412 20.2809C3.13804 21.1122 3.44113 21.8663 3.95207 22.5433C4.43702 23.186 5.04321 23.683 5.77931 24.0258C6.10838 24.18 6.45478 24.2828 6.80983 24.3685C7.01767 24.42 7.23417 24.4285 7.44201 24.4285C8.81893 24.4285 10.1959 24.4285 11.5728 24.4285C11.7893 24.4285 12.0144 24.4457 12.2309 24.4371C13.1402 24.4114 14.0495 24.42 14.9588 24.4371C15.3745 24.4371 15.7815 24.4628 16.1972 24.5056C16.5609 24.5399 16.9333 24.5742 17.297 24.6256C17.7559 24.6856 18.2063 24.7713 18.6566 24.8656C19.3494 25.0198 20.0422 25.2083 20.7176 25.4311C21.8434 25.8082 22.9259 26.2881 23.9651 26.8622C25.2727 27.5821 26.4678 28.4476 27.5676 29.4502C27.888 29.7415 28.1825 30.05 28.4942 30.3414C28.6414 30.4785 28.6501 30.6071 28.6501 30.7699C28.6501 31.1384 28.6501 31.5068 28.6501 31.8753C28.6588 32.638 29.1697 33.2978 29.9577 33.4778C30.893 33.6835 31.7677 33.1522 31.9755 32.2181C32.0015 32.0896 32.0275 31.9696 32.0275 31.8325C32.0275 28.9532 32.0275 26.0653 32.0275 23.186V16.6646C32.0275 13.6825 32.0275 10.6918 32.0275 7.70962C32.0275 7.03264 31.733 6.50991 31.1095 6.18427C30.5293 5.88434 29.8019 5.95289 29.2736 6.37279C28.9359 6.64702 28.754 6.99836 28.6588 7.40969C28.6328 7.51253 28.6414 7.61536 28.6414 7.71819C28.6414 8.06954 28.6414 8.42088 28.6414 8.76366C28.6414 15.8763 28.6414 22.9889 28.6414 30.0929C28.6414 30.2043 28.6414 30.3157 28.5981 30.4185M28.6155 9.0036C28.6155 9.0036 28.5635 9.01217 28.5289 9.03788C28.2604 9.3121 27.9833 9.59489 27.7062 9.85197C27.0567 10.4604 26.3726 11.0174 25.6451 11.5316C25.1688 11.8658 24.6752 12.1914 24.1729 12.4828C23.5494 12.8341 22.8999 13.1598 22.2331 13.4425C21.6096 13.7082 20.9688 13.9481 20.3193 14.1538C19.7477 14.3338 19.1675 14.488 18.5873 14.6166C18.1716 14.7023 17.7559 14.7794 17.3403 14.8394C16.8207 14.9165 16.3011 14.9679 15.7728 15.0022C14.699 15.0793 13.6252 15.045 12.5513 15.0536C12.3955 15.0536 12.3695 15.0279 12.3695 15.2336C12.3695 18.2414 12.3695 21.2493 12.3695 24.2571C12.3695 24.3085 12.3608 24.36 12.3868 24.4028M32.0708 23.006C32.0708 23.006 32.14 22.9974 32.1833 22.9803C33.032 22.6889 33.8807 22.3976 34.7294 22.1062C35.2403 21.9348 35.6993 21.4035 35.6819 20.7694C35.6646 20.0838 35.6819 19.3983 35.6819 18.7127C35.6819 18.5928 35.6819 18.4728 35.656 18.3614C35.5607 17.8986 35.2923 17.5473 34.8506 17.3845C34.1838 17.136 33.4997 16.9303 32.8155 16.7161C32.573 16.6389 32.3392 16.5447 32.0881 16.4933M39.2152 19.7154C39.2758 19.7325 39.3364 19.7325 39.397 19.7325C41.207 19.7325 43.0082 19.7325 44.8181 19.7325C44.8788 19.7325 44.9394 19.7325 45 19.7154M41.3022 10.7003C40.4276 11.5744 39.5269 12.4228 38.6436 13.2969C38.2106 13.7253 37.7603 14.1452 37.3273 14.5823C37.284 14.6251 37.2147 14.6508 37.2321 14.728M41.3282 28.7818C40.4969 27.9677 39.6655 27.1622 38.8341 26.3481C38.3319 25.8596 37.8383 25.3797 37.336 24.8913C37.3013 24.857 37.2754 24.797 37.1974 24.8056" stroke="#194457" stroke-width="1.2" stroke-linejoin="round"/>
</svg>
