<svg width="48" height="44" viewBox="0 0 48 44" fill="none" xmlns="http://www.w3.org/2000/svg">
<path d="M14.2701 24.75L16.8501 22.16M16.3201 26.8L18.9101 24.21M23.9701 20.64L26.9301 23.6L30.4101 20.11L27.3701 17.07M23.8901 13.59L20.4001 10.1H16.9201L16.9101 13.58L20.4001 17.07M31.6701 26.8L29.0901 24.21M33.7201 24.75L31.1301 22.16M23.6801 42.9C23.5001 42.85 5.58008 37.38 5.58008 20.75V6.32L24.0001 1L42.4201 6.32V20.76C42.4201 37.4 24.5001 42.86 24.3201 42.91L24.0001 43L23.6801 42.91V42.9ZM7.82008 20.75C7.82008 34.52 21.7301 39.86 24.0001 40.64C26.2701 39.86 40.1801 34.51 40.1801 20.75V8.01L24.0001 3.34L7.82008 8.01V20.75ZM24.0001 27.9L25.0701 30.45L27.8201 30.68L25.7301 32.49L26.3601 35.19L23.9901 33.76L21.6201 35.19L22.2501 32.49L20.1601 30.68L22.9101 30.45L23.9801 27.9H24.0001ZM30.9701 13.48V10.01H27.4901L17.4801 20.03L20.9601 23.51L30.9701 13.49V13.48ZM16.8101 19.35L21.6201 24.16C22.0001 24.54 22.0001 25.16 21.6201 25.54C21.2401 25.92 20.6201 25.92 20.2401 25.54L15.4301 20.73C15.0501 20.35 15.0501 19.73 15.4301 19.35C15.8101 18.97 16.4301 18.97 16.8101 19.35ZM16.3201 26.76C16.4701 28.02 15.5801 29.16 14.3201 29.32C13.0601 29.47 11.9201 28.58 11.7601 27.32C11.6101 26.06 12.5001 24.92 13.7601 24.76C15.0201 24.61 16.1601 25.5 16.3201 26.76ZM26.2701 24.26L31.0801 19.45C31.4601 19.07 32.0801 19.07 32.4601 19.45C32.8401 19.83 32.8401 20.45 32.4601 20.83L27.6501 25.64C27.2701 26.02 26.6501 26.02 26.2701 25.64C25.8901 25.26 25.8901 24.64 26.2701 24.26ZM36.2501 26.95C36.3001 28.22 35.3101 29.28 34.0401 29.33C32.7701 29.38 31.7101 28.39 31.6601 27.12C31.6101 25.85 32.6001 24.79 33.8701 24.74C35.1401 24.69 36.2001 25.68 36.2501 26.95Z" stroke="#194457" stroke-width="1.2" stroke-miterlimit="10"/>
</svg>
