<svg width="48" height="44" viewBox="0 0 48 44" fill="none" xmlns="http://www.w3.org/2000/svg">
<path d="M27.4033 25.904C27.9721 25.904 28.4333 25.4451 28.4333 24.879C28.4333 24.3129 27.9721 23.854 27.4033 23.854H21.0333C20.4644 23.854 20.0033 24.3129 20.0033 24.879C20.0033 25.4451 20.4644 25.904 21.0333 25.904M27.4033 25.904H21.0333M27.4033 25.904C27.9721 25.904 28.4333 26.3629 28.4333 26.929C28.4333 27.4951 27.9721 27.954 27.4033 27.954H21.0333C20.4644 27.954 20.0033 27.4951 20.0033 26.929C20.0033 26.3629 20.4644 25.904 21.0333 25.904M27.5832 28.034L25.5332 41.784C25.4532 42.454 24.8932 42.954 24.2232 42.954C23.5532 42.954 22.9932 42.454 22.9132 41.784L20.8632 28.034M20.6232 1.00371C20.6232 1.00371 28.8532 0.514026 28.3032 10.784C28.3032 10.784 29.4632 10.164 29.6132 7.92403C29.6132 7.92403 33.8332 17.744 24.2132 17.744C19.6632 17.934 16.9532 14.724 18.3832 10.304C18.7732 8.78402 20.0232 7.69402 20.6232 6.27402C20.7832 5.68402 20.8332 4.90403 20.6232 4.31403C20.6232 4.31403 22.4232 5.03403 22.2532 7.08403C24.0558 5.02806 21.9177 2.17383 20.6232 1.00371ZM18.0232 19.264H30.4132V22.014C30.4132 23.034 29.5832 23.854 28.5732 23.854H19.8732C18.8532 23.854 18.0332 23.024 18.0332 22.014V19.264H18.0232Z" stroke="#194457" stroke-width="1.2" stroke-miterlimit="10"/>
</svg>
