<svg width="48" height="44" viewBox="0 0 48 44" fill="none" xmlns="http://www.w3.org/2000/svg">
<path d="M41.34 29.76L35.87 35.84C35.1 36.69 34.01 37.18 32.86 37.18H22.08C21.17 37.18 20.35 37.73 20.01 38.58L19.65 39.49C19.31 40.33 18.49 40.89 17.58 40.89H5M13.16 25.31L12.49 32.63C12.44 33.18 12.29 33.72 12.04 34.22L10.04 38.22C9.43 39.44 10.32 40.88 11.68 40.88C12.4 40.88 13.05 40.46 13.35 39.81L15.9 34.27C16.14 33.74 16.28 33.17 16.3 32.59L16.54 26.49M39.85 31.25L32.99 19.38M30.84 15.66L28.27 11.22M21.79 16.23L26.51 19.38H31.7C32.73 19.38 33.56 18.55 33.56 17.52C33.56 16.5 32.73 15.67 31.71 15.66L27.19 15.64L22.54 10.97C21.76 10.18 20.69 9.74 19.58 9.74C18.58 9.74 17.65 10.1 16.92 10.7C16.19 11.3 15.67 12.15 15.47 13.13L13.15 25.31L21.35 28.16C22.21 28.46 22.79 29.28 22.79 30.19V35.32C22.79 36.34 23.62 37.17 24.64 37.17C25.66 37.17 26.49 36.34 26.49 35.32V27.53C26.49 26.64 25.94 25.84 25.1 25.52L20.25 23.68L21.77 16.23L19.81 14.92M14.96 15.8L9.28 14.48M18.22 3.99C19.54 2.67 21.67 2.67 22.99 3.99C24.31 5.31 24.31 7.44 22.99 8.76C21.67 10.08 19.54 10.08 18.22 8.76C16.9 7.44 16.9 5.31 18.22 3.99ZM7.88 21.85L9.57 12.96C9.83 11.59 11.03 10.59 12.43 10.59C14.26 10.59 15.63 12.25 15.29 14.05L13.6 22.94C13.34 24.31 12.14 25.31 10.74 25.31C8.91 25.31 7.54 23.65 7.88 21.85Z" stroke="#194457" stroke-width="1.2" stroke-linejoin="round"/>
</svg>
