<svg width="48" height="44" viewBox="0 0 48 44" fill="none" xmlns="http://www.w3.org/2000/svg">
<path d="M28.1223 29.7356H19.8673M28.1223 29.7356H28.133C33.6718 29.7356 38.1562 34.2199 38.1562 39.7587V40.8985H9.84415V39.7587C9.84415 34.2199 14.3285 29.7356 19.8673 29.7356M28.1223 29.7356V25.0169M19.8673 29.7356V25.0169M19.8673 25.0169C19.8673 22.7907 18.9193 20.6923 17.3429 19.1159C15.628 17.4116 14.5628 15.047 14.5628 12.4373C14.5628 7.22869 18.7915 3 24.0001 3C29.2088 3 33.4375 7.22869 33.4375 12.4373M19.8673 25.0169H28.1223M28.1223 25.0169C28.1223 22.7907 29.0703 20.6923 30.6468 19.1159C32.3617 17.4116 33.4268 15.047 33.4268 12.4373M24.0001 25.0169V15.5796M24.0001 15.5796L27.1424 12.4373M24.0001 15.5796L20.8579 12.4373M38.1562 12.4373H40.5208M36.5797 6.53634L38.6248 5.35401M36.5797 18.3383L38.6248 19.5207M9.84415 12.4373H7.47949M11.4099 6.53634L9.36483 5.35401M11.4099 18.3383L9.36483 19.5207M27.1424 29.7356H20.8473L22.4237 34.4542H25.5659L27.1424 29.7356ZM27.1424 40.9091H20.8473L22.4237 34.4649H25.5659L27.1424 40.9091Z" stroke="#194457" stroke-width="1.2" stroke-miterlimit="10"/>
</svg>
