<svg width="59" height="49" viewBox="0 0 59 49" fill="none" xmlns="http://www.w3.org/2000/svg">
    <path d="M16.61 29.305V43.645C16.61 45.545 18.15 47.075 20.04 47.075H53.57C55.47 47.075 57 45.535 57 43.645V5.35499C57 3.45499 55.46 1.92499 53.57 1.92499H20.05C18.15 1.92499 16.62 3.46499 16.62 5.35499V18.895M11.61 13.895L6.43 19.075M49.56 13.025H23.93M49.56 22.175H29.42M49.56 31.335H34.92M25.15 27.435L19.97 32.615M25.85 28.135L7.65 9.93499C6.98 9.26499 5.89 9.26499 5.22 9.93499L2.36 12.805C1.69 13.475 1.69 14.565 2.36 15.235L20.68 33.325L28.27 35.735L25.86 28.145L25.85 28.135Z" stroke="#9AC750" stroke-width="3" stroke-miterlimit="10"/>
</svg>
