<svg width="49" height="49" viewBox="0 0 49 49" fill="none" xmlns="http://www.w3.org/2000/svg">
<g clip-path="url(#clip0_1355_1837)">
<path d="M22.3577 47.5H5.40132C2.75758 47.5 0.880587 44.9237 1.69011 42.4068C3.84055 35.7201 10.4313 30.8814 17.8323 30.8814C21.3629 30.8814 24.6361 31.9825 27.3277 33.86M25.9273 22.7458C28.9566 19.5414 33.2471 17.5419 38.0047 17.5419C41.5351 17.5419 44.8084 18.643 47.5 20.5205M40.1912 47.5V32.8814M47.5 40.1907H32.8824M9.88406 22.831C9.88406 18.4175 13.4618 14.8395 17.875 14.8395C22.2883 14.8395 25.866 18.4175 25.866 22.831C25.866 27.2446 22.2883 30.8226 17.875 30.8226C13.4618 30.8226 9.88406 27.2446 9.88406 22.831ZM30.0563 9.49153C30.0563 5.07796 33.6341 1.5 38.0473 1.5C42.4605 1.5 46.0382 5.07796 46.0382 9.49153C46.0382 13.9051 42.4605 17.4831 38.0473 17.4831C33.6341 17.4831 30.0563 13.9051 30.0563 9.49153Z" stroke="#B2DB6E" stroke-width="3" stroke-miterlimit="10"/>
</g>
<defs>
<clipPath id="clip0_1355_1837">
<rect width="49" height="49" fill="white"/>
</clipPath>
</defs>
</svg>
