<svg width="50" height="48" viewBox="0 0 50 48" fill="none" xmlns="http://www.w3.org/2000/svg">
    <path d="M31.0823 18.0281C32.6377 18.0281 33.8985 16.7946 33.8985 15.2729C33.8985 13.7513 32.6377 12.5179 31.0823 12.5179C29.5268 12.5179 28.2659 13.7513 28.2659 15.2729C28.2659 16.7946 29.5268 18.0281 31.0823 18.0281ZM31.0823 18.0281L31.0822 18.0281C28.4898 18.0281 26.3884 20.0838 26.3884 22.6199V23.5382H35.7761V22.6199C35.7761 20.0838 33.6745 18.0281 31.0823 18.0281ZM14.3759 37.6551L17.7106 34.3982L14.3797 31.1587L11.0535 34.4093M16.0451 32.7784L19.1499 29.7451M48 18.0281C48 27.1565 40.4259 34.5561 31.0823 34.5561C21.6853 34.5561 14.1644 27.1059 14.1644 18.0281C14.1644 8.89958 21.7385 1.5 31.0823 1.5C40.4259 1.5 48 8.89958 48 18.0281ZM43.3006 18.0281C43.3006 24.6207 37.8303 29.965 31.0822 29.965C24.3342 29.965 18.8638 24.6207 18.8638 18.0281C18.8638 11.4355 24.3342 6.0911 31.0822 6.0911C37.8303 6.0911 43.3006 11.4355 43.3006 18.0281ZM3.25806 45.2947L3.23366 45.271C1.58878 43.6639 1.58878 41.0582 3.23366 39.4511L9.72387 33.1104L15.7052 38.954L9.21506 45.2947C7.5701 46.9018 4.90303 46.9018 3.25806 45.2947Z" stroke="#B2DB6E" stroke-width="3" stroke-miterlimit="10"/>
</svg>
