<svg width="56" height="49" viewBox="0 0 56 49" fill="none" xmlns="http://www.w3.org/2000/svg">
<g clip-path="url(#clip0_1355_1839)">
<path d="M39.942 36.6574C39.942 38.5778 38.352 40.1266 36.4006 40.1266C34.4492 40.1266 32.8592 38.5675 32.8592 36.6574M39.942 36.6574C39.942 34.737 38.352 33.1883 36.4006 33.1883C34.4492 33.1883 32.8592 34.7474 32.8592 36.6574M39.942 36.6574H47.4171M32.8592 36.6574H8.7923M50.9688 47.0751H5.2406C3.2789 47.0751 1.69922 45.5161 1.69922 43.606V5.39415C1.69922 3.47376 3.28923 1.92505 5.2406 1.92505H50.9585C52.9202 1.92505 54.4998 3.48408 54.4998 5.39415V43.606C54.4998 45.5264 52.9098 47.0751 50.9585 47.0751H50.9688ZM21.4711 10.4326V26.2295L34.728 18.3311L21.4711 10.4326Z" stroke="#B2DB6E" stroke-width="3" stroke-miterlimit="10"/>
</g>
<defs>
<clipPath id="clip0_1355_1839">
<rect width="56" height="49" fill="white"/>
</clipPath>
</defs>
</svg>
