<svg width="50" height="53" viewBox="0 0 50 53" fill="none" xmlns="http://www.w3.org/2000/svg">
    <path d="M40.1176 13.2486H30.5596C29.4665 13.2486 28.5846 12.3453 28.5846 11.2376V1.5M40.1176 13.2486L28.5846 1.5M40.1176 13.2486V23.5776M28.5846 1.5H4.11394C2.67231 1.5 1.5 2.69368 1.5 4.16158V48.8384C1.5 50.3117 2.67231 51.5 4.11394 51.5H32.5082M17.2206 21.1527H32.5821M6.50608 21.1527H12.4838M20.3309 29.8041H30.9979M20.3309 35.0359H28.5846M20.3309 40.2676H27.5918M6.50608 44.752H32.5134M48.3079 36.9285L40.878 27.2985C40.5242 26.8414 39.843 26.8361 39.4892 27.2985L31.9378 36.9285C31.4731 37.52 31.885 38.3964 32.6296 38.3964H36.1096L36.1782 50.4838C36.1782 50.9784 36.5796 51.3817 37.0654 51.3817H43.2913C43.7824 51.3817 44.1785 50.9731 44.1785 50.473L44.1098 38.3964H47.6109C48.3502 38.3964 48.7674 37.5254 48.3079 36.9339V36.9285ZM6.50608 8.57603H23.5944V13.2486H6.50608V8.57603ZM16.5288 19.4482C17.4529 20.3891 17.4529 21.9216 16.5288 22.8625C15.6047 23.8035 14.0997 23.8035 13.1756 22.8625C12.2515 21.9216 12.2515 20.3891 13.1756 19.4482C14.0997 18.5072 15.6047 18.5072 16.5288 19.4482ZM6.50608 29.8041H16.777V40.2676H6.50608V29.8041Z" stroke="#B2DB6E" stroke-width="2.5" stroke-miterlimit="10"/>
</svg>
