<svg width="59" height="49" viewBox="0 0 59 49" fill="none" xmlns="http://www.w3.org/2000/svg">
<g clip-path="url(#clip0_1355_1833)">
<path d="M16.6099 29.3051V43.6451C16.6099 45.5451 18.1499 47.0751 20.0399 47.0751H53.5699C55.4699 47.0751 56.9999 45.5351 56.9999 43.6451V5.35505C56.9999 3.45505 55.4599 1.92505 53.5699 1.92505H20.0499C18.1499 1.92505 16.6199 3.46505 16.6199 5.35505V18.8951M11.6099 13.8951L6.42992 19.0751M49.5599 13.0251H23.9299M49.5599 22.1751H29.4199M49.5599 31.3351H34.9199M25.1499 27.4351L19.9699 32.6151M25.8499 28.1351L7.64992 9.93505C6.97992 9.26505 5.88992 9.26505 5.21992 9.93505L2.35992 12.8051C1.68992 13.4751 1.68992 14.5651 2.35992 15.2351L20.6799 33.3251L28.2699 35.7351L25.8599 28.1451L25.8499 28.1351Z" stroke="#B2DB6E" stroke-width="3" stroke-miterlimit="10"/>
</g>
<defs>
<clipPath id="clip0_1355_1833">
<rect width="59" height="49" fill="white"/>
</clipPath>
</defs>
</svg>
