<svg width="56" height="49" viewBox="0 0 56 49" fill="none" xmlns="http://www.w3.org/2000/svg">
    <path d="M39.942 36.6573C39.942 38.5777 38.352 40.1265 36.4006 40.1265C34.4492 40.1265 32.8592 38.5674 32.8592 36.6573M39.942 36.6573C39.942 34.7369 38.352 33.1882 36.4006 33.1882C34.4492 33.1882 32.8592 34.7473 32.8592 36.6573M39.942 36.6573H47.4171M32.8592 36.6573H8.7923M50.9688 47.075H5.2406C3.2789 47.075 1.69922 45.516 1.69922 43.6059V5.39409C1.69922 3.4737 3.28923 1.92499 5.2406 1.92499H50.9585C52.9202 1.92499 54.4998 3.48402 54.4998 5.39409V43.6059C54.4998 45.5263 52.9098 47.075 50.9585 47.075H50.9688ZM21.4711 10.4325V26.2294L34.728 18.331L21.4711 10.4325Z" stroke="#9AC750" stroke-width="3" stroke-miterlimit="10"/>
</svg>
