<svg width="49" height="51" viewBox="0 0 49 51" fill="none" xmlns="http://www.w3.org/2000/svg">
    <path d="M24.5056 25.2349C30.8216 23.3623 33.7839 20.8015 38.5573 25.6185L42.8052 29.9052M24.4944 25.2462C22.6387 31.6199 20.1012 34.6093 24.8745 39.4262L29.1224 43.7129M24.4944 25.2462C26.3501 18.8725 28.8877 15.8831 24.1143 11.0662L19.8664 6.77944M24.4944 25.2462C18.1784 27.1188 15.2161 29.6796 10.4427 24.8626L6.19482 20.5759M3.66843 28.2694C4.93162 37.1024 11.5271 44.2093 20.1906 46.0368M17.34 40.1707L20.6713 46.1383L14.7577 49.5M45.5216 22.7306C44.2584 13.8977 37.663 6.79072 28.9994 4.96322M31.8388 10.8293L28.5076 4.86169L34.4211 1.5M2.6288 18.0377L17.3512 3.18085C18.1896 2.33478 19.5534 2.33478 20.3918 3.18085C21.2302 4.02691 21.2302 5.40317 20.3918 6.24924L5.66942 21.1061C4.83101 21.9522 3.46721 21.9522 2.6288 21.1061C1.7904 20.26 1.7904 18.8838 2.6288 18.0377ZM28.6082 44.2431L43.3306 29.3863C44.169 28.5402 45.5328 28.5402 46.3712 29.3863C47.2096 30.2323 47.2096 31.6086 46.3712 32.4546L31.6488 47.3115C30.8104 48.1576 29.4466 48.1576 28.6082 47.3115C27.7698 46.4655 27.7698 45.0892 28.6082 44.2431Z" stroke="#9AC750" stroke-width="3" stroke-miterlimit="10"/>
</svg>
