<svg width="25" height="24" viewBox="0 0 25 24" fill="none" xmlns="http://www.w3.org/2000/svg">
<path d="M20.4116 1H4.41162C2.75477 1 1.41162 2.34315 1.41162 4V20C1.41162 21.6569 2.75477 23 4.41162 23H20.4116C22.0685 23 23.4116 21.6569 23.4116 20V4C23.4116 2.34315 22.0685 1 20.4116 1Z" fill="white"/>
<path d="M20.4116 1H4.41162C2.75477 1 1.41162 2.34315 1.41162 4V20C1.41162 21.6569 2.75477 23 4.41162 23H20.4116C22.0685 23 23.4116 21.6569 23.4116 20V4C23.4116 2.34315 22.0685 1 20.4116 1Z" stroke="#007AFF" stroke-width="2"/>
<path fill-rule="evenodd" clip-rule="evenodd" d="M6.23858 8.86546C6.67025 8.37983 7.41387 8.33609 7.89949 8.76776L12.412 12.7789L16.9245 8.76776C17.4101 8.33609 18.1538 8.37983 18.5854 8.86546C19.0171 9.35109 18.9734 10.0947 18.4877 10.5264L13.1936 15.2323C12.7479 15.6285 12.0762 15.6285 11.6304 15.2323L6.33628 10.5264C5.85066 10.0947 5.80692 9.35109 6.23858 8.86546Z" fill="#007AFF"/>
</svg>
