<svg width="24" height="24" viewBox="0 0 24 24" fill="none" xmlns="http://www.w3.org/2000/svg">
<rect x="1" y="1" width="22" height="22" rx="3" fill="white"/>
<rect x="1" y="1" width="22" height="22" rx="3" stroke="#DC2B2B" stroke-width="2"/>
<path fill-rule="evenodd" clip-rule="evenodd" d="M11.2183 5.82657C11.664 5.43035 12.3358 5.43035 12.7815 5.82657L18.0756 10.5325C18.5612 10.9641 18.605 11.7077 18.1733 12.1934C17.7417 12.679 16.998 12.7227 16.5124 12.2911L11.9999 8.27994L7.48738 12.2911C7.00176 12.7227 6.25814 12.679 5.82647 12.1934C5.39481 11.7077 5.43855 10.9641 5.92418 10.5325L11.2183 5.82657Z" fill="#DC2B2B"/>
<path fill-rule="evenodd" clip-rule="evenodd" d="M11.2183 11.7089C11.664 11.3127 12.3358 11.3127 12.7815 11.7089L18.0756 16.4148C18.5612 16.8465 18.605 17.5901 18.1733 18.0757C17.7417 18.5613 16.998 18.6051 16.5124 18.1734L11.9999 14.1623L7.48738 18.1734C7.00176 18.6051 6.25814 18.5613 5.82647 18.0757C5.39481 17.5901 5.43855 16.8465 5.92418 16.4148L11.2183 11.7089Z" fill="#FF7700"/>
</svg>
