<svg width="25" height="24" viewBox="0 0 25 24" fill="none" xmlns="http://www.w3.org/2000/svg">
<path d="M20.8823 1H4.88232C3.22547 1 1.88232 2.34315 1.88232 4V20C1.88232 21.6569 3.22547 23 4.88232 23H20.8823C22.5392 23 23.8823 21.6569 23.8823 20V4C23.8823 2.34315 22.5392 1 20.8823 1Z" fill="white"/>
<path d="M20.8823 1H4.88232C3.22547 1 1.88232 2.34315 1.88232 4V20C1.88232 21.6569 3.22547 23 4.88232 23H20.8823C22.5392 23 23.8823 21.6569 23.8823 20V4C23.8823 2.34315 22.5392 1 20.8823 1Z" stroke="#315E98" stroke-width="2"/>
<path d="M7.58838 12.5882L12.8825 17.2941L18.1766 12.5882" stroke="#315E98" stroke-width="2.35294" stroke-linecap="round" stroke-linejoin="round"/>
<path d="M7.58838 6.70588L12.8825 11.4118L18.1766 6.70588" stroke="#007AFF" stroke-width="2.35294" stroke-linecap="round" stroke-linejoin="round"/>
</svg>
