<svg width="25" height="24" viewBox="0 0 25 24" fill="none" xmlns="http://www.w3.org/2000/svg">
<g opacity="0.41">
<path d="M20.4707 1H4.4707C2.81385 1 1.4707 2.34315 1.4707 4V20C1.4707 21.6569 2.81385 23 4.4707 23H20.4707C22.1276 23 23.4707 21.6569 23.4707 20V4C23.4707 2.34315 22.1276 1 20.4707 1Z" fill="white"/>
<path d="M20.4707 1H4.4707C2.81385 1 1.4707 2.34315 1.4707 4V20C1.4707 21.6569 2.81385 23 4.4707 23H20.4707C22.1276 23 23.4707 21.6569 23.4707 20V4C23.4707 2.34315 22.1276 1 20.4707 1Z" stroke="#FF7700" stroke-width="2"/>
<path fill-rule="evenodd" clip-rule="evenodd" d="M11.689 8.76775C12.1347 8.37153 12.8065 8.37153 13.2522 8.76775L18.5463 13.4736C19.0319 13.9053 19.0757 14.6489 18.644 15.1345C18.2124 15.6202 17.4687 15.6639 16.9831 15.2322L12.4706 11.2211L7.95809 15.2322C7.47246 15.6639 6.72885 15.6202 6.29718 15.1345C5.86551 14.6489 5.90925 13.9053 6.39488 13.4736L11.689 8.76775Z" fill="#FF7700"/>
</g>
</svg>
