<svg width="25" height="24" viewBox="0 0 25 24" fill="none" xmlns="http://www.w3.org/2000/svg">
<path d="M20.9414 1H4.94141C3.28455 1 1.94141 2.34315 1.94141 4V20C1.94141 21.6569 3.28455 23 4.94141 23H20.9414C22.5983 23 23.9414 21.6569 23.9414 20V4C23.9414 2.34315 22.5983 1 20.9414 1Z" fill="white"/>
<path d="M20.9414 1H4.94141C3.28455 1 1.94141 2.34315 1.94141 4V20C1.94141 21.6569 3.28455 23 4.94141 23H20.9414C22.5983 23 23.9414 21.6569 23.9414 20V4C23.9414 2.34315 22.5983 1 20.9414 1Z" stroke="#FFB71B" stroke-width="2"/>
<path fill-rule="evenodd" clip-rule="evenodd" d="M6.4707 14.3529C6.4707 13.7032 6.99743 13.1765 7.64717 13.1765H18.2354C18.8852 13.1765 19.4119 13.7032 19.4119 14.3529C19.4119 15.0027 18.8852 15.5294 18.2354 15.5294H7.64717C6.99743 15.5294 6.4707 15.0027 6.4707 14.3529Z" fill="#FFB71B"/>
<path fill-rule="evenodd" clip-rule="evenodd" d="M6.4707 9.64706C6.4707 8.99731 6.99743 8.47059 7.64717 8.47059H18.2354C18.8852 8.47059 19.4119 8.99731 19.4119 9.64706C19.4119 10.2968 18.8852 10.8235 18.2354 10.8235H7.64717C6.99743 10.8235 6.4707 10.2968 6.4707 9.64706Z" fill="#FFB71B"/>
</svg>
