<svg width="17" height="15" viewBox="0 0 17 15" fill="none" xmlns="http://www.w3.org/2000/svg">
    <path d="M16.2446 12.8086C16.7368 13.6836 16.1079 14.75 15.0962 14.75H1.9985C0.986783 14.75 0.357877 13.6562 0.850064 12.8086L7.41256 1.40623C7.90475 0.53123 9.18991 0.558573 9.6821 1.40623L16.2446 12.8086ZM8.561 10.4297C7.85006 10.4297 7.30319 11.0039 7.30319 11.6875C7.30319 12.3984 7.85006 12.9453 8.561 12.9453C9.2446 12.9453 9.81881 12.3984 9.81881 11.6875C9.81881 11.0039 9.2446 10.4297 8.561 10.4297ZM7.35788 5.91795L7.54928 9.6367C7.57663 9.8281 7.71335 9.93748 7.87741 9.93748H9.21725C9.38131 9.93748 9.51803 9.8281 9.54538 9.6367L9.73678 5.91795C9.76413 5.72654 9.60006 5.56248 9.40866 5.56248H7.686C7.4946 5.56248 7.33053 5.72654 7.35788 5.91795Z" fill="#FFB71B"/>
</svg>
