<svg width="16" height="16" viewBox="0 0 16 16" fill="none" xmlns="http://www.w3.org/2000/svg">
<path d="M15.8263 13.0572C16.3267 13.9328 15.6873 15 14.6586 15H1.34141C0.312739 15 -0.326708 13.9055 0.173729 13.0572L6.84622 1.64651C7.34665 0.77087 8.65335 0.798233 9.15378 1.64651L15.8263 13.0572ZM8.0139 10.6765C7.29105 10.6765 6.73501 11.2512 6.73501 11.9353C6.73501 12.6467 7.29105 13.194 8.0139 13.194C8.70895 13.194 9.29279 12.6467 9.29279 11.9353C9.29279 11.2512 8.70895 10.6765 8.0139 10.6765ZM6.79061 6.16152L6.98523 9.88299C7.01303 10.0745 7.15204 10.184 7.31885 10.184H8.68115C8.84796 10.184 8.98697 10.0745 9.01477 9.88299L9.20939 6.16152C9.23719 5.96997 9.07038 5.80579 8.87576 5.80579H7.12424C6.92962 5.80579 6.76281 5.96997 6.79061 6.16152Z" fill="#FFB71B"/>
</svg>
