<svg width="21" height="21" viewBox="0 0 21 21" fill="none" xmlns="http://www.w3.org/2000/svg">
<path d="M20.1421 9.12698L1.67321 0.117753C1.51438 0.0402723 1.33996 0 1.16323 0C0.5208 0 0 0.5208 0 1.16323V1.1968C0 1.35289 0.0191387 1.50839 0.0569959 1.65982L1.8286 8.74621C1.87699 8.9398 2.04065 9.08279 2.23892 9.10484L10.0257 9.97004C10.2957 10 10.5 10.2282 10.5 10.5C10.5 10.7718 10.2957 11 10.0257 11.03L2.23892 11.8952C2.04065 11.9172 1.87699 12.0602 1.8286 12.2538L0.0569959 19.3401C0.0191387 19.4916 0 19.6471 0 19.8032V19.8368C0 20.4792 0.5208 21 1.16323 21C1.33996 21 1.51438 20.9597 1.67321 20.8822L20.1421 11.873C20.667 11.617 21 11.0841 21 10.5C21 9.91591 20.667 9.38299 20.1421 9.12698Z" fill="#007AFF"/>
</svg>
