<svg width="15" height="14" viewBox="0 0 15 14" fill="none" xmlns="http://www.w3.org/2000/svg">
    <path fill-rule="evenodd" clip-rule="evenodd" d="M7.22363 0C3.35623 0 0.223633 3.1326 0.223633 7C0.223633 10.8674 3.35623 14 7.22363 14C11.091 14 14.2236 10.8674 14.2236 7C14.2236 3.1326 11.091 0 7.22363 0ZM5.11203 9.78453C4.9496 9.94696 4.73303 10.032 4.50872 10.032C4.28441 10.032 4.06783 9.94696 3.9054 9.78453L1.70098 7.58011C1.36838 7.24751 1.36838 6.70608 1.70098 6.37348C2.02584 6.04088 2.56728 6.04088 2.89988 6.37348L4.50872 7.98232L8.26783 4.21547C8.60043 3.88287 9.14186 3.88287 9.47446 4.21547C9.80706 4.54807 9.80706 5.0895 9.47446 5.4221L5.11203 9.78453ZM8.77833 9.78453C8.6159 9.9547 8.39159 10.032 8.17501 10.032C7.95844 10.032 7.74187 9.9547 7.57943 9.78453C7.24684 9.45193 7.24684 8.91823 7.57943 8.58564L11.4314 4.72597C11.764 4.39337 12.3054 4.39337 12.638 4.72597C12.9706 5.05856 12.9706 5.59227 12.638 5.92486L8.77833 9.78453Z" fill="#9AC750"/>
</svg>
