<svg width="16" height="16" viewBox="0 0 16 16" fill="none" xmlns="http://www.w3.org/2000/svg">
<path fill-rule="evenodd" clip-rule="evenodd" d="M8 1C4.1326 1 1 4.1326 1 8C1 11.8674 4.1326 15 8 15C11.8674 15 15 11.8674 15 8C15 4.1326 11.8674 1 8 1ZM5.8884 10.7845C5.72597 10.947 5.50939 11.032 5.28508 11.032C5.06077 11.032 4.8442 10.947 4.68177 10.7845L2.47735 8.58011C2.14475 8.24751 2.14475 7.70608 2.47735 7.37348C2.80221 7.04088 3.34365 7.04088 3.67624 7.37348L5.28508 8.98232L9.0442 5.21547C9.3768 4.88287 9.91823 4.88287 10.2508 5.21547C10.5834 5.54807 10.5834 6.0895 10.2508 6.4221L5.8884 10.7845ZM9.5547 10.7845C9.39227 10.9547 9.16796 11.032 8.95138 11.032C8.73481 11.032 8.51823 10.9547 8.3558 10.7845C8.0232 10.4519 8.0232 9.91823 8.3558 9.58564L12.2077 5.72597C12.5403 5.39337 13.0818 5.39337 13.4144 5.72597C13.747 6.05856 13.747 6.59227 13.4144 6.92486L9.5547 10.7845Z" fill="#9AC750"/>
</svg>
