<svg width="307" height="53" viewBox="0 0 307 53" fill="none" xmlns="http://www.w3.org/2000/svg">
<g clip-path="url(#clip0_97_109)">
<path d="M28.1624 4.21749C26.8837 3.17356 25.2099 2.42194 23.1412 1.96261C21.0724 1.50329 18.5774 1.26318 15.6666 1.26318H0V48.5216H3.89845V28.7393H15.6666C18.5254 28.7393 20.9892 28.5096 23.0372 28.0398C25.0852 27.5701 26.7589 26.8184 28.0584 25.785C29.3579 24.741 30.3143 23.4048 30.9381 21.7658C31.5514 20.1269 31.8633 18.133 31.8633 15.7946V14.1974C31.8633 11.8486 31.5618 9.86511 30.9693 8.22615C30.3767 6.58719 29.4411 5.25097 28.1624 4.20705V4.21749ZM27.9648 15.471C27.9648 17.3709 27.7673 18.9577 27.3723 20.2208C26.9772 21.484 26.2911 22.4757 25.3243 23.2065C24.3575 23.9372 23.0892 24.4487 21.5194 24.7306C19.96 25.0229 18.0056 25.1586 15.6666 25.1586H3.89845V4.84384H15.6666C17.9536 4.84384 19.8873 4.98999 21.4466 5.27185C23.006 5.56415 24.2743 6.06523 25.2515 6.79598C26.2183 7.52673 26.9149 8.51845 27.3307 9.7816C27.7465 11.0447 27.9545 12.6211 27.9545 14.5315V15.4605L27.9648 15.471Z" fill="white"/>
<path d="M49.3179 1.26318H45.4091V48.5216H73.2388L74.0393 44.9409H49.3179V1.26318Z" fill="white"/>
<path d="M101.994 1.26318L83.749 48.5216H87.7202L93.3444 33.3847H114.427L120.114 48.5216H124.282L106.09 1.26318H101.994ZM94.5919 29.8667L103.844 5.37624L113.097 29.8667H94.5919Z" fill="white"/>
<path d="M146.353 24.6888L131.144 1.26318H126.788L144.305 28.0816V48.5216H148.203V28.0816L165.523 1.26318H161.354L146.353 24.6888Z" fill="white"/>
<path d="M206.638 4.84384L207.428 1.26318H177.218V48.5216H206.638L207.428 44.9409H181.127V26.0251H204.985L205.776 22.434H181.127V4.84384H206.638Z" fill="white"/>
<path d="M251.153 24.2921C252.765 22.2982 253.565 19.4065 253.565 15.5962V14.333C253.565 11.9425 253.253 9.90681 252.64 8.2261C252.027 6.54538 251.06 5.19872 249.76 4.17567C248.461 3.16307 246.787 2.41144 244.739 1.95211C242.691 1.49279 240.238 1.25269 237.369 1.25269H221.702V48.5111H225.6V28.6661H239.417L251.247 48.5111H255.738L243.377 28.1964C246.943 27.5804 249.532 26.2755 251.143 24.2816L251.153 24.2921ZM237.379 25.0959H225.611V4.84378H237.379C239.666 4.84378 241.61 4.98993 243.201 5.27179C244.791 5.56409 246.049 6.06517 247.006 6.79592C247.952 7.52667 248.638 8.51839 249.054 9.78154C249.469 11.0447 249.677 12.6523 249.677 14.594V15.3248C249.677 17.2769 249.48 18.8741 249.085 20.1373C248.69 21.4004 248.014 22.3921 247.068 23.1229C246.122 23.8536 244.864 24.3652 243.305 24.647C241.745 24.9393 239.77 25.075 237.389 25.075L237.379 25.0959Z" fill="white"/>
<path d="M279.649 43.0828C277.996 42.6861 276.686 41.9136 275.719 40.7548C274.752 39.6065 274.087 37.978 273.733 35.8797C273.38 33.7814 273.203 31.0255 273.203 27.6118V22.0999C273.203 18.6445 273.38 15.8677 273.733 13.7694C274.087 11.6711 274.742 10.0426 275.719 8.89429C276.686 7.74597 277.996 6.98391 279.649 6.60809C281.301 6.23228 283.453 6.04438 286.094 6.04438C288.734 6.04438 290.886 6.24272 292.539 6.63941C294.192 7.0361 295.502 7.80861 296.469 8.96736C297.436 10.1157 298.101 11.7442 298.455 13.8425C298.808 15.9408 298.985 18.6967 298.985 22.1104V27.6223C298.985 31.0777 298.808 33.8545 298.455 35.9528C298.101 38.0511 297.436 39.6796 296.469 40.8279C296.219 41.1202 295.949 41.3916 295.658 41.6317L300.201 46.1832C301.095 45.5151 301.896 44.7635 302.551 43.9179C304.006 42.0389 304.983 39.7527 305.493 37.0489C306.002 34.3556 306.251 31.2969 306.251 27.8937V21.8494C306.251 18.2687 305.992 15.1161 305.461 12.3914C304.931 9.66679 303.933 7.39104 302.457 5.55373C300.981 3.71643 298.933 2.33845 296.313 1.40936C293.693 0.480264 290.283 0.010498 286.104 0.010498C281.925 0.010498 278.38 0.511581 275.76 1.50331C273.141 2.49504 271.103 3.93565 269.648 5.81471C268.192 7.69378 267.215 9.99041 266.706 12.6837C266.196 15.3875 265.947 18.4357 265.947 21.8494V27.8937C265.947 31.4744 266.207 34.627 266.737 37.3516C267.267 40.0763 268.265 42.352 269.741 44.1893C271.217 46.0267 273.265 47.4046 275.885 48.3337C278.505 49.2628 281.915 49.7326 286.094 49.7326C287.466 49.7326 288.734 49.6804 289.94 49.576L284.067 43.6465C282.331 43.563 280.854 43.3855 279.649 43.0932V43.0828Z" fill="white"/>
<path d="M285.772 37.8423H281.177L296.199 53.0001H300.794L285.772 37.8423Z" fill="url(#paint0_linear_97_109)"/>
<path d="M300.201 46.1832L295.669 41.6213L291.895 37.8423H290.419H287.57H285.772L300.794 53.0001H302.675H305.524H307L300.201 46.1832Z" fill="white"/>
</g>
<defs>
<linearGradient id="paint0_linear_97_109" x1="281.177" y1="45.4212" x2="300.794" y2="45.4212" gradientUnits="userSpaceOnUse">
<stop offset="0.31" stop-color="#9FCD56"/>
<stop offset="0.6" stop-color="#3E6FB6"/>
<stop offset="0.95" stop-color="#012839"/>
</linearGradient>
<clipPath id="clip0_97_109">
<rect width="307" height="53" fill="white"/>
</clipPath>
</defs>
</svg>
