<svg width="451" height="78" viewBox="0 0 451 78" fill="none" xmlns="http://www.w3.org/2000/svg">
<path d="M41.3629 6.15356C39.4848 4.62669 37.0266 3.52734 33.9881 2.85552C30.9496 2.1837 27.2851 1.83252 23.0099 1.83252H0V70.9539H5.72576V42.0197H23.0099C27.2088 42.0197 30.8275 41.6838 33.8354 40.9967C36.8433 40.3096 39.3016 39.2103 41.2102 37.6987C43.1188 36.1718 44.5235 34.2174 45.4396 31.8202C46.3405 29.423 46.7985 26.5067 46.7985 23.0865V20.7504C46.7985 17.315 46.3557 14.4139 45.4854 12.0167C44.6151 9.61955 43.2409 7.66516 41.3629 6.13829V6.15356ZM41.0728 22.6132C41.0728 25.3921 40.7827 27.7129 40.2025 29.5605C39.6222 31.408 38.6145 32.8585 37.1945 33.9273C35.7745 34.9961 33.9118 35.7443 31.6062 36.1565C29.3159 36.5841 26.4454 36.7825 23.0099 36.7825H5.72576V7.06968H23.0099C26.369 7.06968 29.209 7.28344 31.4993 7.6957C33.7896 8.12322 35.6524 8.85612 37.0876 9.92492C38.5076 10.9937 39.5306 12.4443 40.1414 14.2918C40.7521 16.1393 41.0575 18.4449 41.0575 21.239V22.5979L41.0728 22.6132Z" fill="black"/>
<path d="M72.4349 1.83252H66.6938V70.9539H107.568L108.744 65.7167H72.4349V1.83252Z" fill="black"/>
<path d="M149.801 1.83252L123.005 70.9539H128.838L137.098 48.8143H168.063L176.415 70.9539H182.538L155.817 1.83252H149.801ZM138.93 43.6687L152.519 7.84838L166.108 43.6687H138.93Z" fill="black"/>
<path d="M214.952 36.0955L192.614 1.83252H186.217L211.945 41.0578V70.9539H217.67V41.0578L243.108 1.83252H236.985L214.952 36.0955Z" fill="black"/>
<path d="M303.496 7.06968L304.656 1.83252H260.286V70.9539H303.496L304.656 65.7167H266.027V38.0499H301.068L302.229 32.7974H266.027V7.06968H303.496Z" fill="black"/>
<path d="M368.876 35.5149C371.242 32.5986 372.418 28.3691 372.418 22.7961V20.9486C372.418 17.452 371.96 14.4746 371.059 12.0164C370.158 9.55812 368.738 7.58846 366.83 6.09213C364.921 4.61106 362.463 3.51172 359.455 2.8399C356.447 2.16807 352.844 1.81689 348.63 1.81689H325.62V70.9382H331.345V41.9125H351.637L369.013 70.9382H375.609L357.455 41.2254C362.692 40.3245 366.494 38.4159 368.861 35.4996L368.876 35.5149ZM348.645 36.6906H331.361V7.06932H348.645C352.004 7.06932 354.859 7.28309 357.195 7.69534C359.531 8.12286 361.379 8.85576 362.784 9.92457C364.173 10.9934 365.181 12.4439 365.792 14.2914C366.402 16.1389 366.708 18.4903 366.708 21.3303V22.3991C366.708 25.2543 366.418 27.5904 365.837 29.438C365.257 31.2855 364.265 32.736 362.875 33.8048C361.486 34.8736 359.638 35.6218 357.348 36.034C355.058 36.4615 352.157 36.66 348.66 36.66L348.645 36.6906Z" fill="black"/>
<path d="M410.728 62.9986C408.3 62.4184 406.376 61.2885 404.956 59.5937C403.536 57.9141 402.559 55.5322 402.04 52.4632C401.521 49.3942 401.261 45.3633 401.261 40.3704V32.3085C401.261 27.2546 401.521 23.1931 402.04 20.1241C402.559 17.0551 403.521 14.6732 404.956 12.9937C406.376 11.3141 408.3 10.1995 410.728 9.64981C413.155 9.10014 416.316 8.8253 420.194 8.8253C424.072 8.8253 427.233 9.11541 429.661 9.69562C432.089 10.2758 434.012 11.4057 435.432 13.1005C436.852 14.7801 437.83 17.162 438.349 20.231C438.868 23.3 439.127 27.331 439.127 32.3238V40.3857C439.127 45.4396 438.868 49.5011 438.349 52.5701C437.83 55.6391 436.852 58.021 435.432 59.7006C435.066 60.1281 434.669 60.5251 434.241 60.8763L440.914 67.5334C442.227 66.5562 443.403 65.4569 444.365 64.2201C446.502 61.4717 447.937 58.1279 448.686 54.1733C449.434 50.234 449.8 45.7603 449.8 40.7827V31.9421C449.8 26.7049 449.418 22.0938 448.64 18.1087C447.861 14.1235 446.395 10.795 444.227 8.10767C442.059 5.42038 439.051 3.40492 435.203 2.046C431.356 0.687091 426.347 0 420.209 0C414.071 0 408.865 0.732897 405.017 2.18342C401.169 3.63395 398.177 5.74103 396.039 8.48939C393.902 11.2378 392.466 14.5969 391.718 18.5362C390.97 22.4908 390.604 26.9492 390.604 31.9421V40.7827C390.604 46.0198 390.985 50.631 391.764 54.6161C392.543 58.6012 394.008 61.9298 396.177 64.6171C398.345 67.3044 401.353 69.3198 405.2 70.6788C409.048 72.0377 414.056 72.7248 420.194 72.7248C422.21 72.7248 424.072 72.6484 425.844 72.4957L417.217 63.8231C414.667 63.701 412.499 63.4414 410.728 63.0139V62.9986Z" fill="black"/>
<path d="M419.721 55.334H412.973L435.036 77.5041H441.785L419.721 55.334Z" fill="url(#paint0_linear_73_7425)"/>
<path d="M440.914 67.5337L434.257 60.8612L428.714 55.334H426.546H422.363H419.721L441.784 77.5041H444.548H448.732H450.9L440.914 67.5337Z" fill="black"/>
<defs>
<linearGradient id="paint0_linear_73_7425" x1="412.973" y1="66.4191" x2="441.785" y2="66.4191" gradientUnits="userSpaceOnUse">
<stop offset="0.31" stop-color="#CFFF80"/>
<stop offset="0.79" stop-color="#006DB0"/>
</linearGradient>
</defs>
</svg>
