<?xml version="1.0" encoding="UTF-8"?><svg id="Layer_1" xmlns="http://www.w3.org/2000/svg" xmlns:xlink="http://www.w3.org/1999/xlink" viewBox="0 0 359.14 95.31"><defs><style>.cls-1{fill:none;}.cls-2{fill:#012839;}.cls-3{fill:url(#New_Gradient_Swatch_2);}</style><linearGradient id="New_Gradient_Swatch_2" x1="302.39" y1="65.78" x2="321.26" y2="65.78" gradientUnits="userSpaceOnUse"><stop offset=".31" stop-color="#9fcd56"/><stop offset=".6" stop-color="#3e6fb6"/><stop offset=".95" stop-color="#012839"/></linearGradient></defs><path class="cls-1" d="M56.21,28.79c-.93-.7-2.15-1.19-3.66-1.46-1.5-.27-3.36-.41-5.56-.41h-11.32v19.46h11.32c2.25,0,4.12-.14,5.63-.41,1.5-.27,2.72-.76,3.66-1.46.93-.7,1.59-1.65,1.97-2.86.38-1.21.57-2.72.57-4.55v-.89c0-1.82-.2-3.34-.6-4.55-.4-1.21-1.07-2.16-2-2.86Z"/><path class="cls-1" d="M319.01,56.7c.34-2.01.51-4.67.51-7.98v-5.28c0-3.26-.17-5.9-.51-7.92-.34-2.01-.98-3.57-1.91-4.67-.93-1.1-2.19-1.84-3.78-2.23-1.59-.38-3.66-.57-6.2-.57s-4.61.18-6.2.54c-1.59.36-2.85,1.09-3.78,2.19-.93,1.1-1.57,2.66-1.91,4.67-.34,2.01-.51,4.67-.51,7.98v5.28c0,3.26.17,5.9.51,7.92.34,2.01.97,3.57,1.91,4.67.93,1.1,2.19,1.84,3.78,2.23,1.16.28,2.58.45,4.25.53l-5.52-5.54h13.05l3.62,3.62c.28-.23.54-.49.78-.77.93-1.1,1.57-2.66,1.91-4.67Z"/><polygon class="cls-1" points="122.91 50.88 140.71 50.88 131.81 27.42 122.91 50.88"/><path class="cls-1" d="M271.51,41.57c.38-1.21.57-2.74.57-4.61v-.7c0-1.86-.2-3.4-.6-4.61-.4-1.21-1.06-2.16-1.97-2.86-.91-.7-2.13-1.19-3.66-1.46-1.53-.27-3.39-.41-5.6-.41h-11.32v19.39h11.32c2.29,0,4.19-.14,5.69-.41,1.5-.28,2.71-.76,3.62-1.46.91-.7,1.56-1.65,1.94-2.86Z"/><path class="cls-2" d="M59.01,26.31c-1.23-1-2.84-1.72-4.83-2.16-1.99-.44-4.39-.67-7.19-.67h-15.07v45.27h3.75v-18.95h11.32c2.75,0,5.12-.22,7.09-.67,1.97-.45,3.58-1.17,4.83-2.16,1.25-1,2.17-2.28,2.77-3.85.59-1.57.89-3.48.89-5.72v-1.53c0-2.25-.29-4.15-.86-5.72-.57-1.57-1.47-2.85-2.7-3.85ZM58.82,37.09c0,1.82-.19,3.34-.57,4.55-.38,1.21-1.04,2.16-1.97,2.86-.93.7-2.15,1.19-3.66,1.46-1.5.28-3.38.41-5.63.41h-11.32v-19.46h11.32c2.2,0,4.06.14,5.56.41,1.5.28,2.72.76,3.66,1.46.93.7,1.6,1.65,2,2.86.4,1.21.6,2.72.6,4.55v.89Z"/><polygon class="cls-2" points="79.35 23.48 75.6 23.48 75.6 68.75 102.37 68.75 103.13 65.32 79.35 65.32 79.35 23.48"/><path class="cls-2" d="M130.03,23.48l-17.55,45.27h3.82l5.41-14.5h20.28l5.47,14.5h4.01l-17.49-45.27h-3.94ZM122.91,50.88l8.9-23.46,8.9,23.46h-17.8Z"/><polygon class="cls-2" points="172.7 45.92 158.07 23.48 153.88 23.48 170.73 49.17 170.73 68.75 174.48 68.75 174.48 49.17 191.14 23.48 187.13 23.48 172.7 45.92"/><polygon class="cls-2" points="230.69 26.91 231.45 23.48 202.39 23.48 202.39 68.75 230.69 68.75 231.45 65.32 206.14 65.32 206.14 47.2 229.1 47.2 229.86 43.76 206.14 43.76 206.14 26.91 230.69 26.91"/><path class="cls-2" d="M273.51,45.54c1.55-1.91,2.32-4.68,2.32-8.33v-1.21c0-2.29-.3-4.24-.89-5.85-.59-1.61-1.52-2.9-2.77-3.88-1.25-.97-2.86-1.69-4.83-2.13-1.97-.44-4.33-.67-7.09-.67h-15.07v45.27h3.75v-19.01h13.29l11.38,19.01h4.32l-11.89-19.46c3.43-.59,5.92-1.84,7.47-3.75ZM260.26,46.31h-11.32v-19.39h11.32c2.2,0,4.07.14,5.6.41,1.53.28,2.74.76,3.66,1.46.91.7,1.57,1.65,1.97,2.86.4,1.21.6,2.75.6,4.61v.7c0,1.87-.19,3.4-.57,4.61-.38,1.21-1.03,2.16-1.94,2.86-.91.7-2.12,1.19-3.62,1.46-1.5.28-3.4.41-5.69.41Z"/><path class="cls-2" d="M300.92,63.54c-1.59-.38-2.85-1.12-3.78-2.23-.93-1.1-1.57-2.66-1.91-4.67-.34-2.01-.51-4.65-.51-7.92v-5.28c0-3.31.17-5.97.51-7.98.34-2.01.97-3.57,1.91-4.67.93-1.1,2.19-1.83,3.78-2.19,1.59-.36,3.66-.54,6.2-.54s4.61.19,6.2.57c1.59.38,2.85,1.12,3.78,2.23.93,1.1,1.57,2.66,1.91,4.67.34,2.01.51,4.65.51,7.92v5.28c0,3.31-.17,5.97-.51,7.98-.34,2.01-.98,3.57-1.91,4.67-.24.28-.5.54-.78.77l4.37,4.36c.86-.64,1.63-1.36,2.26-2.17,1.4-1.8,2.34-3.99,2.83-6.58.49-2.58.73-5.51.73-8.77v-5.79c0-3.43-.25-6.45-.76-9.06-.51-2.61-1.47-4.79-2.89-6.55-1.42-1.76-3.39-3.08-5.91-3.97-2.52-.89-5.8-1.34-9.82-1.34s-7.43.48-9.95,1.43c-2.52.95-4.48,2.33-5.88,4.13-1.4,1.8-2.34,4-2.83,6.58-.49,2.59-.73,5.51-.73,8.78v5.79c0,3.43.25,6.45.76,9.06s1.47,4.79,2.89,6.55c1.42,1.76,3.39,3.08,5.91,3.97,2.52.89,5.8,1.34,9.82,1.34,1.32,0,2.54-.05,3.7-.15l-5.65-5.68c-1.67-.08-3.09-.25-4.25-.53Z"/><polygon class="cls-3" points="306.81 58.52 302.39 58.52 316.84 73.04 321.26 73.04 306.81 58.52"/><polygon class="cls-2" points="320.69 66.51 316.32 62.14 312.7 58.52 311.28 58.52 308.54 58.52 306.81 58.52 321.26 73.04 323.07 73.04 325.81 73.04 327.23 73.04 320.69 66.51"/></svg>