<svg width="450" height="78" viewBox="0 0 450 78" fill="none" xmlns="http://www.w3.org/2000/svg">
<path d="M41.2803 6.14201C39.406 4.61818 36.9527 3.52103 33.9203 2.85055C30.8879 2.18007 27.2307 1.82959 22.964 1.82959H0V70.813H5.71433V41.9366H22.964C27.1545 41.9366 30.766 41.6013 33.7679 40.9156C36.7698 40.2299 39.2232 39.1328 41.128 37.6242C43.0327 36.1003 44.4346 34.1498 45.3489 31.7575C46.248 29.365 46.7051 26.4546 46.7051 23.0412V20.7097C46.7051 17.2811 46.2632 14.3859 45.3947 11.9935C44.5261 9.60108 43.1546 7.65059 41.2803 6.12677V6.14201ZM40.9908 22.5688C40.9908 25.3422 40.7013 27.6584 40.1222 29.5022C39.5432 31.346 38.5375 32.7936 37.1203 33.8603C35.7031 34.927 33.8441 35.6737 31.5431 36.0851C29.2574 36.5118 26.3926 36.7099 22.964 36.7099H5.71433V7.0563H22.964C26.3164 7.0563 29.1507 7.26963 31.4364 7.68107C33.7222 8.10774 35.5812 8.83917 37.0136 9.90585C38.4308 10.9725 39.4517 12.4202 40.0613 14.264C40.6708 16.1078 40.9756 18.4088 40.9756 21.1974V22.5536L40.9908 22.5688Z" fill="white"/>
<path d="M72.2901 1.82959H66.5605V70.813H107.353L108.527 65.5863H72.2901V1.82959Z" fill="white"/>
<path d="M149.502 1.82959L122.759 70.813H128.58L136.824 48.7176H167.727L176.063 70.813H182.173L155.506 1.82959H149.502ZM138.653 43.5823L152.215 7.83345L165.777 43.5823H138.653Z" fill="white"/>
<path d="M214.524 36.0242L192.23 1.82959H185.845L211.522 40.9766V70.813H217.236V40.9766L242.623 1.82959H236.512L214.524 36.0242Z" fill="white"/>
<path d="M302.89 7.0563L304.048 1.82959H259.766V70.813H302.89L304.048 65.5863H265.496V37.9746H300.467L301.625 32.7327H265.496V7.0563H302.89Z" fill="white"/>
<path d="M368.14 35.4442C370.502 32.5337 371.675 28.3127 371.675 22.7508V20.907C371.675 17.4174 371.218 14.446 370.319 11.9926C369.42 9.53925 368.002 7.57352 366.098 6.08018C364.193 4.60207 361.74 3.50492 358.738 2.83444C355.736 2.16396 352.139 1.81348 347.934 1.81348H324.97V70.7969H330.684V41.829H350.936L368.277 70.7969H374.86L356.741 41.1433C361.968 40.2443 365.762 38.3395 368.124 35.429L368.14 35.4442ZM347.949 36.6176H330.699V7.05542H347.949C351.301 7.05542 354.151 7.26876 356.482 7.68019C358.814 8.10686 360.658 8.8383 362.06 9.90497C363.446 10.9716 364.452 12.4193 365.061 14.2631C365.671 16.1069 365.976 18.4536 365.976 21.2879V22.3546C365.976 25.2041 365.686 27.5356 365.107 29.3794C364.528 31.2232 363.538 32.6709 362.151 33.7375C360.764 34.8042 358.92 35.5509 356.635 35.9623C354.349 36.389 351.454 36.5871 347.964 36.5871L347.949 36.6176Z" fill="white"/>
<path d="M409.908 62.8729C407.485 62.2938 405.565 61.1662 404.148 59.4748C402.73 57.7986 401.755 55.4214 401.237 52.3585C400.719 49.2956 400.46 45.2727 400.46 40.2898V32.2441C400.46 27.2002 400.719 23.1469 401.237 20.084C401.755 17.0211 402.715 14.6439 404.148 12.9677C405.565 11.2915 407.485 10.1791 409.908 9.63055C412.331 9.08198 415.485 8.80769 419.355 8.80769C423.226 8.80769 426.38 9.09722 428.803 9.67627C431.226 10.2553 433.146 11.3829 434.563 13.0744C435.98 14.7506 436.956 17.1278 437.474 20.1906C437.992 23.2535 438.251 27.2764 438.251 32.2593V40.3051C438.251 45.3489 437.992 49.4023 437.474 52.4652C436.956 55.5281 435.98 57.9052 434.563 59.5814C434.197 60.0081 433.801 60.4043 433.375 60.7548L440.034 67.3986C441.344 66.4234 442.517 65.3262 443.477 64.0919C445.611 61.3491 447.043 58.0119 447.79 54.0652C448.537 50.1337 448.902 45.6689 448.902 40.7013V31.8784C448.902 26.6516 448.521 22.0497 447.744 18.0725C446.967 14.0954 445.504 10.7734 443.34 8.09149C441.177 5.40957 438.175 3.39812 434.335 2.04192C430.495 0.68572 425.496 0 419.371 0C413.245 0 408.049 0.731435 404.209 2.17907C400.369 3.6267 397.382 5.72957 395.249 8.47245C393.115 11.2153 391.683 14.5677 390.936 18.4992C390.189 22.4459 389.824 26.8955 389.824 31.8784V40.7013C389.824 45.928 390.205 50.5299 390.982 54.5071C391.759 58.4843 393.222 61.8062 395.386 64.4881C397.549 67.1701 400.551 69.1815 404.391 70.5377C408.231 71.8939 413.23 72.5796 419.355 72.5796C421.367 72.5796 423.226 72.5034 424.994 72.3511L416.384 63.6958C413.839 63.5739 411.675 63.3148 409.908 62.8881V62.8729Z" fill="white"/>
<path d="M418.884 55.2236H412.148L434.168 77.3495H440.903L418.884 55.2236Z" fill="url(#paint0_linear_410_336)"/>
<path d="M440.034 67.399L433.39 60.7399L427.859 55.2236H425.695H421.519H418.883L440.902 77.3495H443.661H447.836H450L440.034 67.399Z" fill="white"/>
<defs>
<linearGradient id="paint0_linear_410_336" x1="412.148" y1="66.2866" x2="440.903" y2="66.2866" gradientUnits="userSpaceOnUse">
<stop offset="0.31" stop-color="#CFFF80"/>
<stop offset="0.79" stop-color="#006DB0"/>
</linearGradient>
</defs>
</svg>
