<?xml version="1.0" encoding="UTF-8"?><svg id="Layer_1" xmlns="http://www.w3.org/2000/svg" xmlns:xlink="http://www.w3.org/1999/xlink" viewBox="0 0 83.18 95.31"><defs><style>.cls-1{fill:none;}.cls-2{fill:#fff;}.cls-3{fill:url(#New_Gradient_Swatch_2);}</style><linearGradient id="New_Gradient_Swatch_2" x1="36.5" y1="65.78" x2="55.37" y2="65.78" gradientUnits="userSpaceOnUse"><stop offset=".31" stop-color="#9fcd56"/><stop offset=".6" stop-color="#3e6fb6"/><stop offset=".95" stop-color="#012839"/></linearGradient></defs><path class="cls-1" d="M53.12,56.7c.34-2.01.51-4.67.51-7.98v-5.28c0-3.26-.17-5.9-.51-7.92-.34-2.01-.98-3.57-1.91-4.67-.93-1.1-2.19-1.84-3.78-2.23-1.59-.38-3.66-.57-6.2-.57s-4.61.18-6.2.54c-1.59.36-2.85,1.09-3.78,2.19-.93,1.1-1.57,2.66-1.91,4.67-.34,2.01-.51,4.67-.51,7.98v5.28c0,3.26.17,5.9.51,7.92.34,2.01.97,3.57,1.91,4.67.93,1.1,2.19,1.84,3.78,2.23,1.16.28,2.58.45,4.25.53l-5.52-5.54h13.05l3.62,3.62c.28-.23.54-.49.78-.77.93-1.1,1.57-2.66,1.91-4.67Z"/><path class="cls-2" d="M35.03,63.54c-1.59-.38-2.85-1.12-3.78-2.23-.93-1.1-1.57-2.66-1.91-4.67-.34-2.01-.51-4.65-.51-7.92v-5.28c0-3.31.17-5.97.51-7.98.34-2.01.97-3.57,1.91-4.67.93-1.1,2.19-1.83,3.78-2.19,1.59-.36,3.66-.54,6.2-.54s4.61.19,6.2.57c1.59.38,2.85,1.12,3.78,2.23.93,1.1,1.57,2.66,1.91,4.67.34,2.01.51,4.65.51,7.92v5.28c0,3.31-.17,5.97-.51,7.98-.34,2.01-.98,3.57-1.91,4.67-.24.28-.5.54-.78.77l4.37,4.36c.86-.64,1.63-1.36,2.26-2.17,1.4-1.8,2.34-3.99,2.83-6.58.49-2.58.73-5.51.73-8.77v-5.79c0-3.43-.25-6.45-.76-9.06-.51-2.61-1.47-4.79-2.89-6.55-1.42-1.76-3.39-3.08-5.91-3.97-2.52-.89-5.8-1.34-9.82-1.34s-7.43.48-9.95,1.43c-2.52.95-4.48,2.33-5.88,4.13-1.4,1.8-2.34,4-2.83,6.58-.49,2.59-.73,5.51-.73,8.78v5.79c0,3.43.25,6.45.76,9.06s1.47,4.79,2.89,6.55c1.42,1.76,3.39,3.08,5.91,3.97,2.52.89,5.8,1.34,9.82,1.34,1.32,0,2.54-.05,3.7-.15l-5.65-5.68c-1.67-.08-3.09-.25-4.25-.53Z"/><polygon class="cls-3" points="40.92 58.52 36.5 58.52 50.95 73.04 55.37 73.04 40.92 58.52"/><polygon class="cls-2" points="54.8 66.51 50.44 62.14 46.81 58.52 45.4 58.52 42.65 58.52 40.92 58.52 55.37 73.04 57.18 73.04 59.92 73.04 61.34 73.04 54.8 66.51"/></svg>