<svg width="472" height="85" viewBox="0 0 472 85" fill="none" xmlns="http://www.w3.org/2000/svg">
<path d="M22.4144 68.9341C19.7651 68.3018 17.6719 67.0699 16.1238 65.2274C14.5757 63.3958 13.5072 60.8011 12.9403 57.4541C12.3734 54.1071 12.09 49.7135 12.09 44.2733V35.4861C12.09 29.9805 12.3734 25.5433 12.9403 22.2072C13.5072 18.8603 14.5539 16.2655 16.1238 14.434C17.6719 12.6024 19.7651 11.3922 22.4144 10.7926C25.0636 10.193 28.5087 9.89863 32.7388 9.89863C36.9688 9.89863 40.4139 10.2148 43.0631 10.8471C45.7124 11.4795 47.8056 12.7114 49.3537 14.5539C50.9018 16.3855 51.9703 18.9802 52.5372 22.3272C53.1041 25.6741 53.3876 30.0677 53.3876 35.5079V44.2951C53.3876 49.8007 53.1041 54.238 52.5372 57.574C51.9703 60.9101 50.9018 63.5157 49.3537 65.3473C48.9503 65.8161 48.5252 66.2413 48.0564 66.6338L55.3281 73.8946C56.7563 72.8262 58.0428 71.627 59.0894 70.286C61.4225 67.2879 62.9815 63.6466 63.7992 59.3293C64.6168 55.0338 65.0093 50.1605 65.0093 44.7312V35.0937C65.0093 29.3809 64.595 24.355 63.7447 20.0159C62.8943 15.6659 61.2917 12.0464 58.9368 9.11367C56.571 6.18097 53.2894 3.98963 49.103 2.50693C44.9056 1.02423 39.4436 0.271973 32.7606 0.271973C26.0775 0.271973 20.3974 1.06783 16.2001 2.64866C12.0027 4.22948 8.74297 6.52985 6.40989 9.52796C4.07682 12.5261 2.5178 16.1892 1.70014 20.4847C0.88247 24.7911 0.48999 29.6535 0.48999 35.1046V44.7421C0.48999 50.4549 0.904274 55.4808 1.75465 59.8199C2.60502 64.1699 4.19674 67.7894 6.56253 70.7221C8.92831 73.6548 12.2099 75.8461 16.3963 77.3288C20.5937 78.8115 26.0557 79.5638 32.7388 79.5638C34.941 79.5638 36.9688 79.4766 38.8985 79.313L29.4899 69.8608C26.7098 69.73 24.344 69.4465 22.4144 68.9777V68.9341Z" fill="black"/>
<path d="M32.2263 60.5721H24.8673L48.9176 84.7424H56.2766L32.2263 60.5721Z" fill="url(#paint0_linear_418_307)"/>
<path d="M55.3281 73.8728L48.0673 66.6011L42.0274 60.5721H32.2263L56.2766 84.7424H66.2195L55.3281 73.8728Z" fill="black"/>
<path d="M134.413 2.05994L133.137 7.7945H93.704V36.4891H130.368L129.093 42.2237H93.704V77.7213H87.4352V2.05994H134.413Z" fill="black"/>
<path d="M161.603 2.05994V77.7322H155.334V2.05994H161.603Z" fill="black"/>
<path d="M191.748 2.05994L236.817 67.4296V2.05994H243.086V77.7322H237.243L192.282 12.5806V77.7322H186.013V2.05994H191.748Z" fill="black"/>
<path d="M267.518 2.05994H291.645C297.739 2.05994 302.863 2.71407 307.006 4.02234C311.149 5.3306 314.496 7.36932 317.047 10.1385C319.598 12.9076 321.44 16.3964 322.574 20.6046C323.708 24.8238 324.275 29.8388 324.275 35.6388V44.0335C324.275 49.8444 323.708 54.8703 322.574 59.1221C321.44 63.374 319.598 66.8845 317.047 69.6428C314.496 72.401 311.149 74.4398 307.006 75.7589C302.863 77.0672 297.739 77.7213 291.645 77.7213H267.518V2.05994ZM273.787 71.9977H291.645C296.605 71.9977 300.77 71.518 304.139 70.5586C307.507 69.5992 310.2 68.0293 312.217 65.827C314.234 63.6357 315.673 60.7248 316.523 57.1161C317.374 53.5075 317.799 49.0703 317.799 43.8263V35.8568C317.799 30.6892 317.374 26.3065 316.523 22.7305C315.673 19.1546 314.234 16.2655 312.217 14.0633C310.2 11.8719 307.507 10.2693 304.139 9.2772C300.77 8.2851 296.605 7.7836 291.645 7.7836H273.787V71.9868V71.9977Z" fill="black"/>
<path d="M395.336 2.05994L394.06 7.7945H353.035V35.9658H392.686L391.411 41.7004H353.035V71.9977H395.336L394.06 77.7322H346.766V2.05994H395.336Z" fill="black"/>
<path d="M423.54 45.9523V77.7322H417.271V2.05994H442.466C447.067 2.05994 451.024 2.43061 454.317 3.17196C457.609 3.91331 460.302 5.10166 462.395 6.73699C464.488 8.37232 466.026 10.531 467.018 13.2238C468.01 15.9167 468.5 19.1764 468.5 23.0031V25.02C468.5 31.1143 467.203 35.7587 464.619 38.9421C462.035 42.1256 457.871 44.2188 452.125 45.2109L472 77.7322H464.772L445.747 45.9523H423.529H423.54ZM462.232 23.4174C462.232 20.2993 461.894 17.7264 461.218 15.7095C460.542 13.6926 459.441 12.1009 457.925 10.9234C456.399 9.7569 454.36 8.93924 451.809 8.48134C449.258 8.02345 446.14 7.7945 442.455 7.7945H423.54V40.2177H442.455C446.282 40.2177 449.454 39.9888 451.973 39.5309C454.491 39.073 456.508 38.2553 458.034 37.0888C459.561 35.9222 460.64 34.3196 461.272 32.3027C461.905 30.2858 462.232 27.7129 462.232 24.5948V23.4283V23.4174Z" fill="black"/>
<defs>
<linearGradient id="paint0_linear_418_307" x1="24.8673" y1="72.6627" x2="56.2766" y2="72.6627" gradientUnits="userSpaceOnUse">
<stop offset="0.31" stop-color="#CFFF80"/>
<stop offset="0.79" stop-color="#006DB0"/>
</linearGradient>
</defs>
</svg>
