<svg width="472" height="86" viewBox="0 0 472 86" fill="none" xmlns="http://www.w3.org/2000/svg">
<path d="M22.4144 69.3998C19.7651 68.7675 17.6719 67.5356 16.1238 65.6931C14.5757 63.8615 13.5072 61.2668 12.9403 57.9198C12.3734 54.5728 12.09 50.1792 12.09 44.739V35.9518C12.09 30.4462 12.3734 26.009 12.9403 22.6729C13.5072 19.326 14.5539 16.7312 16.1238 14.8997C17.6719 13.0681 19.7651 11.8579 22.4144 11.2583C25.0636 10.6587 28.5087 10.3643 32.7388 10.3643C36.9688 10.3643 40.4139 10.6805 43.0631 11.3128C45.7124 11.9452 47.8056 13.1771 49.3537 15.0196C50.9018 16.8511 51.9703 19.4459 52.5372 22.7929C53.1041 26.1398 53.3876 30.5334 53.3876 35.9736V44.7608C53.3876 50.2664 53.1041 54.7037 52.5372 58.0397C51.9703 61.3758 50.9018 63.9814 49.3537 65.813C48.9503 66.2818 48.5252 66.707 48.0564 67.0995L55.3281 74.3603C56.7563 73.2919 58.0428 72.0927 59.0894 70.7517C61.4225 67.7536 62.9815 64.1123 63.7992 59.795C64.6168 55.4995 65.0093 50.6262 65.0093 45.1969V35.5594C65.0093 29.8466 64.595 24.8207 63.7447 20.4816C62.8943 16.1316 61.2917 12.5121 58.9368 9.57937C56.571 6.64667 53.2894 4.45533 49.103 2.97263C44.9056 1.48992 39.4436 0.737671 32.7606 0.737671C26.0775 0.737671 20.3974 1.53353 16.2001 3.11435C12.0027 4.69518 8.74297 6.99554 6.40989 9.99365C4.07682 12.9918 2.5178 16.6549 1.70014 20.9504C0.88247 25.2568 0.48999 30.1191 0.48999 35.5703V45.2078C0.48999 50.9206 0.904274 55.9465 1.75465 60.2856C2.60502 64.6356 4.19674 68.2551 6.56253 71.1878C8.92831 74.1205 12.2099 76.3118 16.3963 77.7945C20.5937 79.2772 26.0557 80.0295 32.7388 80.0295C34.941 80.0295 36.9688 79.9423 38.8985 79.7787L29.4899 70.3265C26.7098 70.1957 24.344 69.9122 22.4144 69.4434V69.3998Z" fill="white"/>
<path d="M32.2263 61.0378H24.8673L48.9176 85.2081H56.2766L32.2263 61.0378Z" fill="url(#paint0_linear_418_308)"/>
<path d="M55.3281 74.3385L48.0673 67.0668L42.0274 61.0378H32.2263L56.2766 85.2081H66.2195L55.3281 74.3385Z" fill="white"/>
<path d="M134.413 2.52563L133.137 8.2602H93.704V36.9548H130.368L129.093 42.6894H93.704V78.187H87.4352V2.52563H134.413Z" fill="white"/>
<path d="M161.603 2.52563V78.1979H155.334V2.52563H161.603Z" fill="white"/>
<path d="M191.748 2.52563L236.817 67.8953V2.52563H243.086V78.1979H237.243L192.282 13.0463V78.1979H186.013V2.52563H191.748Z" fill="white"/>
<path d="M267.518 2.52563H291.645C297.739 2.52563 302.863 3.17977 307.006 4.48803C311.149 5.7963 314.496 7.83502 317.047 10.6042C319.598 13.3733 321.44 16.8621 322.574 21.0703C323.708 25.2895 324.275 30.3045 324.275 36.1045V44.4992C324.275 50.3101 323.708 55.336 322.574 59.5878C321.44 63.8397 319.598 67.3502 317.047 70.1085C314.496 72.8667 311.149 74.9055 307.006 76.2246C302.863 77.5329 297.739 78.187 291.645 78.187H267.518V2.52563ZM273.787 72.4634H291.645C296.605 72.4634 300.77 71.9837 304.139 71.0243C307.507 70.0649 310.2 68.495 312.217 66.2927C314.234 64.1014 315.673 61.1905 316.523 57.5818C317.374 53.9732 317.799 49.536 317.799 44.292V36.3225C317.799 31.1549 317.374 26.7722 316.523 23.1962C315.673 19.6203 314.234 16.7312 312.217 14.529C310.2 12.3376 307.507 10.735 304.139 9.7429C300.77 8.7508 296.605 8.2493 291.645 8.2493H273.787V72.4525V72.4634Z" fill="white"/>
<path d="M395.336 2.52563L394.06 8.2602H353.035V36.4315H392.686L391.411 42.1661H353.035V72.4634H395.336L394.06 78.1979H346.766V2.52563H395.336Z" fill="white"/>
<path d="M423.54 46.418V78.1979H417.271V2.52563H442.466C447.067 2.52563 451.024 2.89631 454.317 3.63766C457.609 4.37901 460.302 5.56735 462.395 7.20269C464.488 8.83802 466.026 10.9967 467.018 13.6895C468.01 16.3824 468.5 19.6421 468.5 23.4688V25.4857C468.5 31.58 467.203 36.2244 464.619 39.4078C462.035 42.5913 457.871 44.6845 452.125 45.6766L472 78.1979H464.772L445.747 46.418H423.529H423.54ZM462.232 23.8831C462.232 20.765 461.894 18.1921 461.218 16.1752C460.542 14.1583 459.441 12.5666 457.925 11.3891C456.399 10.2226 454.36 9.40493 451.809 8.94704C449.258 8.48915 446.14 8.2602 442.455 8.2602H423.54V40.6834H442.455C446.282 40.6834 449.454 40.4544 451.973 39.9966C454.491 39.5387 456.508 38.721 458.034 37.5545C459.561 36.3879 460.64 34.7853 461.272 32.7684C461.905 30.7515 462.232 28.1786 462.232 25.0605V23.894V23.8831Z" fill="white"/>
<defs>
<linearGradient id="paint0_linear_418_308" x1="24.8673" y1="73.1284" x2="56.2766" y2="73.1284" gradientUnits="userSpaceOnUse">
<stop offset="0.31" stop-color="#CFFF80"/>
<stop offset="0.79" stop-color="#006DB0"/>
</linearGradient>
</defs>
</svg>
