<?xml version="1.0" encoding="UTF-8"?><svg id="Layer_1" xmlns="http://www.w3.org/2000/svg" xmlns:xlink="http://www.w3.org/1999/xlink" viewBox="0 0 359.14 95.31"><defs><style>.cls-1{fill:#9fcd56;}.cls-2{fill:url(#New_Gradient_Swatch);}.cls-3{fill:#012839;}.cls-4{fill:#fff;}.cls-5{fill:#85b750;}</style><linearGradient id="New_Gradient_Swatch" x1="316.07" y1="65.78" x2="339.49" y2="65.78" gradientUnits="userSpaceOnUse"><stop offset=".31" stop-color="#9fcd56"/><stop offset=".6" stop-color="#3e6fb6"/><stop offset=".95" stop-color="#012839"/></linearGradient></defs><path class="cls-3" d="M144.48,23.48l-.76,3.43h-15.52v41.84h-3.75V26.91h-16.21l.76-3.43h35.48Z"/><path class="cls-3" d="M185.49,23.48l-.76,3.43h-24.54v16.85h23.72l-.76,3.43h-22.95v18.12h25.31l-.76,3.43h-28.3V23.48h29.06Z"/><path class="cls-3" d="M224.98,54.25h-20.29l-5.4,14.5h-3.82l17.55-45.27h3.94l17.48,45.27h-4.01l-5.47-14.5ZM205.9,50.88h17.8l-8.9-23.46-8.9,23.46Z"/><path class="cls-3" d="M265.17,54.95l-15.32-25.43v39.23h-3.75V23.48h4.13l16.6,27.66,16.09-27.66h4.2v45.27h-3.75V29.2l-15.2,25.75h-2.99Z"/><path class="cls-3" d="M319.91,69.9c-4.03,0-7.3-.45-9.82-1.34-2.52-.89-4.49-2.21-5.91-3.97-1.42-1.76-2.38-3.94-2.89-6.55-.51-2.61-.76-5.63-.76-9.06v-5.79c0-3.26.24-6.19.73-8.78.49-2.58,1.43-4.78,2.83-6.58s3.36-3.18,5.88-4.13c2.52-.95,5.84-1.43,9.95-1.43s7.3.45,9.82,1.34c2.52.89,4.49,2.22,5.91,3.97,1.42,1.76,2.38,3.94,2.89,6.55.51,2.61.76,5.63.76,9.06v5.79c0,3.26-.24,6.19-.73,8.77-.49,2.59-1.43,4.78-2.83,6.58-1.4,1.8-3.36,3.18-5.88,4.13-2.52.95-5.84,1.43-9.95,1.43ZM319.91,64.11c2.54,0,4.61-.18,6.2-.54,1.59-.36,2.85-1.09,3.78-2.19.93-1.1,1.57-2.66,1.91-4.67.34-2.01.51-4.67.51-7.98v-5.28c0-3.26-.17-5.9-.51-7.92-.34-2.01-.98-3.57-1.91-4.67-.93-1.1-2.19-1.84-3.78-2.23-1.59-.38-3.66-.57-6.2-.57s-4.61.18-6.2.54c-1.59.36-2.85,1.09-3.78,2.19-.93,1.1-1.57,2.66-1.91,4.67-.34,2.01-.51,4.67-.51,7.98v5.28c0,3.26.17,5.9.51,7.92.34,2.01.97,3.57,1.91,4.67.93,1.1,2.2,1.84,3.78,2.23,1.59.38,3.66.57,6.2.57Z"/><polygon class="cls-4" points="336.75 73.04 322.22 58.52 313.33 58.52 327.78 73.04 336.75 73.04"/><polygon class="cls-2" points="339.49 73.04 324.97 58.52 316.07 58.52 330.52 73.04 339.49 73.04"/><polygon class="cls-3" points="340.91 73.04 326.38 58.52 320.49 58.52 334.94 73.04 340.91 73.04"/><path class="cls-5" d="M97.41,48.44c-.07,1.39-.35,2.72-.86,4.01-.37.91-.85,1.76-1.44,2.53-1.01,1.31-2.25,2.3-3.71,3.03-1.11.56-2.28.91-3.5,1.12-1.13.19-2.26.24-3.4.17-1.51-.09-2.99-.37-4.44-.82-.52-.16-1.02-.35-1.53-.53,0-.03,0-.06,0-.09.32,0,.64.03.96.02,2.35-.08,4.44-.88,6.21-2.49,1.5-1.36,2.45-3.06,2.91-5.05.24-1.04.32-2.1.26-3.17-.08-1.36-.38-2.65-.95-3.88-.64-1.38-1.56-2.54-2.74-3.47-1.24-.97-2.63-1.6-4.16-1.87-2.02-.37-3.96-.11-5.84.71-.09.04-.18.09-.26.14-1.06.6-2.07,1.26-3.05,1.97-1.18.86-2.3,1.78-3.39,2.74-.82.72-1.62,1.47-2.4,2.23-.47.46-.94.93-1.41,1.4-.04.04-.08.08-.13.12-.09-.03-.13-.1-.19-.16-1.05-1.13-2.11-2.26-3.16-3.38-.89-.95-1.78-1.9-2.67-2.86-.04-.04-.08-.09-.13-.14.02-.03.04-.07.07-.1,1.85-1.91,3.74-3.77,5.79-5.45,1.47-1.2,3-2.31,4.65-3.24.44-.25.89-.49,1.35-.72,1.47-.73,3-1.29,4.6-1.66.79-.18,1.59-.31,2.4-.39.78-.08,1.57-.11,2.36-.09,2.6.07,5.08.67,7.42,1.83.57.28,1.12.59,1.66.93.51.32,1,.67,1.48,1.03.42.32.82.65,1.21,1.02.66.62,1.29,1.27,1.85,1.98.31.39.63.78.91,1.19.57.84,1.08,1.72,1.52,2.64.72,1.5,1.23,3.07,1.53,4.71.13.71.21,1.43.26,2.15,0,.03,0,.07,0,.1.03.59.04,1.17,0,1.76h0Z"/><path class="cls-5" d="M21.8,39.42c.6-.53,1.24-1.01,1.95-1.38.43-.23.85-.49,1.33-.63.83-.38,1.7-.6,2.59-.77.64-.13,1.3-.2,1.95-.23.5-.02,1-.03,1.5,0,1,.04,1.99.17,2.97.38.92.19,1.81.46,2.69.79.09.03.19.07.27.11.03.01.04.06.07.09-.08.07-.17.04-.25.04-.3,0-.61-.01-.91,0-1.83.09-3.5.65-5.02,1.7-.68.47-1.29,1.03-1.83,1.67-.57.68-1.04,1.42-1.4,2.24-.44.98-.71,2-.84,3.06-.1.82-.11,1.64-.03,2.46.1,1.08.35,2.13.78,3.13.52,1.2,1.26,2.28,2.17,3.19.91.91,1.82,1.71,2.88,2.39.77.49,1.26.9,1.89,1.49.67.63,1.72,1.97.74,4.22-.87,2.02-2.76,2.54-4.51,2.21-.86-.16-1.66-.49-2.44-.9-1.83-.97-3.5-2.27-4.93-3.79-1.07-1.14-2-2.4-2.76-3.77-.37-.66-.69-1.33-.98-2.02-.57-1.37-.97-2.78-1.2-4.24-.18-1.14-.27-2.28-.24-3.43.04-1.36.27-2.68.76-3.95.29-.75.66-1.46,1.11-2.12.49-.71,1.04-1.35,1.68-1.92Z"/><path class="cls-1" d="M62.73,46.53c1.27,1.36,2.56,2.69,3.9,3.97.53.51,1.07,1.01,1.62,1.5,1.25,1.13,2.54,2.19,3.91,3.16,1.25.89,2.55,1.7,3.92,2.4.54.28,1.1.52,1.66.76,1,.42,2.03.76,3.08,1.02.89.23,1.79.38,2.71.49.91.1,1.83.13,2.75.09,1.9-.09,3.73-.5,5.46-1.35.49-.24.96-.51,1.41-.82.75-.53,1.44-1.14,2.04-1.85.26-.31.5-.64.74-.96l.07.07c-.08.19-.16.38-.24.58-.25.6-.55,1.18-.88,1.74-.74,1.28-1.61,2.46-2.62,3.53-.54.57-1.11,1.11-1.72,1.61-.87.72-1.79,1.35-2.78,1.89-1.67.92-3.44,1.56-5.3,1.91-1.32.25-2.65.34-3.99.3-2.13-.06-4.19-.49-6.19-1.24-.64-.24-1.27-.51-1.88-.81-.96-.47-1.89-.98-2.79-1.57-.43-.28-.84-.58-1.26-.87-.78-.52-1.5-1.1-2.23-1.7-1.31-1.08-2.56-2.23-3.77-3.42-1.52-1.49-2.98-3.05-4.44-4.61-1.31-1.41-2.61-2.83-3.94-4.22-1.93-2.04-3.95-3.98-6.1-5.77-.4-.33-.81-.66-1.22-.97-.42-.32-.83-.65-1.26-.95-.53-.36-1.06-.72-1.61-1.06-.56-.34-1.12-.7-1.7-1.01-.76-.41-1.54-.79-2.34-1.12-1.27-.52-2.56-.93-3.9-1.2-.64-.13-1.29-.22-1.95-.28-.85-.08-1.7-.09-2.55-.03-1.69.11-3.32.48-4.88,1.18-.98.44-1.89.99-2.73,1.68-.74.61-1.39,1.3-1.94,2.09-.03.05-.07.09-.1.14-.02-.02-.04-.05-.07-.07.11-.26.21-.53.33-.78.18-.39.37-.78.58-1.16.62-1.15,1.34-2.22,2.18-3.22.48-.57.98-1.1,1.52-1.61.56-.53,1.15-1.02,1.77-1.47,1.11-.8,2.28-1.47,3.53-2.01,1.35-.58,2.75-.98,4.2-1.21,1.24-.2,2.48-.26,3.72-.2,2.53.12,4.94.73,7.25,1.78,1.18.53,2.31,1.16,3.4,1.86,1.01.65,1.97,1.35,2.91,2.1.81.64,1.59,1.32,2.36,2.01,1,.91,1.97,1.84,2.91,2.81.8.82,1.61,1.65,2.4,2.49,1.36,1.45,2.7,2.9,4.05,4.35h0Z"/><path class="cls-3" d="M53.58,58.67c1.72-1.76,1.72-4.62,0-6.38-1.72-1.76-4.51-1.76-6.24,0-1.72,1.76-1.72,4.62,0,6.38,1.72,1.76,4.51,1.76,6.24,0Z"/><path class="cls-3" d="M41.53,65.83c2.44,0,4.41-2.02,4.41-4.51s-1.97-4.51-4.41-4.51-4.41,2.02-4.41,4.51,1.97,4.51,4.41,4.51Z"/></svg>