<svg width="402" height="88" viewBox="0 0 402 88" fill="none" xmlns="http://www.w3.org/2000/svg">
<path d="M62.7848 2.0918L61.4565 8.04659H34.5836V80.5271H28.0791V8.04659H0L1.32838 2.0918H62.7848Z" fill="black"/>
<path d="M133.831 2.0918L132.502 8.04659H89.9942V37.2403H131.082L129.754 43.1951H89.9942V74.5875H133.831L132.502 80.5423H83.4897V2.0918H133.831Z" fill="black"/>
<path d="M202.219 55.3948H167.086L157.726 80.5118H151.115L181.515 2.0918H188.34L218.633 80.5118H211.701L202.234 55.3948H202.219ZM169.178 49.5621H200.02L184.599 8.9169L169.178 49.5621Z" fill="black"/>
<path d="M271.829 56.6163L245.292 12.5661V80.5271H238.788V2.0918H245.949L274.7 50.0049L302.565 2.0918H309.833V80.5118H303.328V12.0012L277.005 56.6163H271.829Z" fill="black"/>
<path d="M356.326 71.488C353.577 70.8314 351.394 69.5489 349.775 67.6403C348.157 65.7317 347.058 63.0291 346.477 59.5479C345.882 56.0666 345.592 51.486 345.592 45.8366V36.6907C345.592 30.9649 345.882 26.3538 346.477 22.8725C347.058 19.3912 348.172 16.6887 349.775 14.7801C351.394 12.8715 353.577 11.6042 356.326 10.9782C359.074 10.3522 362.662 10.0468 367.059 10.0468C371.457 10.0468 375.045 10.3827 377.793 11.0393C380.542 11.6958 382.725 12.9784 384.344 14.887C385.962 16.7956 387.061 19.4981 387.642 22.9794C388.222 26.4606 388.527 31.0412 388.527 36.6907V45.8366C388.527 51.5624 388.237 56.1735 387.642 59.6548C387.046 63.136 385.947 65.8386 384.344 67.7472C383.931 68.2358 383.489 68.6786 383 69.0755L390.558 76.6335C392.054 75.5189 393.383 74.2822 394.482 72.8622C396.91 69.7474 398.544 65.9455 399.383 61.4565C400.223 56.9827 400.651 51.9135 400.651 46.2641V36.2479C400.651 30.2931 400.208 25.0712 399.322 20.5517C398.437 16.0321 396.772 12.2608 394.314 9.20702C391.856 6.16855 388.436 3.86298 384.069 2.32084C379.702 0.778703 374.022 0 367.044 0C360.066 0 354.173 0.824509 349.806 2.47353C345.439 4.12255 342.034 6.51973 339.622 9.63454C337.194 12.7494 335.56 16.5513 334.72 21.0403C333.881 25.514 333.453 30.5832 333.453 36.2479V46.2641C333.453 52.2189 333.896 57.4408 334.781 61.9603C335.667 66.4799 337.331 70.2665 339.79 73.305C342.248 76.3587 345.668 78.649 350.035 80.1912C354.402 81.7333 360.082 82.512 367.059 82.512C369.335 82.512 371.472 82.4204 373.472 82.2524L363.685 72.4194C360.799 72.282 358.341 71.9919 356.326 71.5033V71.488Z" fill="black"/>
<path d="M366.525 62.7998H358.86L383.901 87.9473H391.55L366.525 62.7998Z" fill="url(#paint0_linear_73_7424)"/>
<path d="M390.573 76.618L383 69.0752L376.724 62.7998H374.266H369.518H366.525L391.55 87.9473H394.68H399.429H401.887L390.573 76.618Z" fill="black"/>
<defs>
<linearGradient id="paint0_linear_73_7424" x1="358.86" y1="75.3659" x2="391.55" y2="75.3659" gradientUnits="userSpaceOnUse">
<stop offset="0.31" stop-color="#CFFF80"/>
<stop offset="0.79" stop-color="#006DB0"/>
</linearGradient>
</defs>
</svg>
