<svg width="233" height="51" viewBox="0 0 233 51" fill="none" xmlns="http://www.w3.org/2000/svg">
<path d="M36.2459 1.20996L35.4859 4.63996H19.9659V46.48H16.2159V4.63996H0.00585938L0.765862 1.20996H36.2459Z" fill="#012839"/>
<path d="M77.2549 1.20996L76.4948 4.63996H51.9548V21.49H75.6749L74.9148 24.92H51.9648V43.04H77.2748L76.5148 46.47H48.2148V1.20996H77.2748H77.2549Z" fill="#012839"/>
<path d="M116.746 31.98H96.4563L91.0563 46.48H87.2363L104.786 1.20996H108.726L126.206 46.48H122.196L116.726 31.98H116.746ZM97.6663 28.61H115.466L106.566 5.14996L97.6663 28.61Z" fill="#012839"/>
<path d="M156.935 32.68L141.615 7.24996V46.48H137.865V1.20996H141.995L158.595 28.87L174.685 1.20996H178.885V46.48H175.135V6.92996L159.935 32.68H156.945H156.935Z" fill="#012839"/>
<path d="M211.675 47.63C207.645 47.63 204.375 47.18 201.855 46.29C199.335 45.4 197.365 44.08 195.945 42.32C194.525 40.56 193.565 38.38 193.055 35.77C192.545 33.16 192.295 30.14 192.295 26.71V20.92C192.295 17.66 192.535 14.73 193.025 12.14C193.515 9.56 194.455 7.36 195.855 5.56C197.255 3.76 199.215 2.38 201.735 1.43C204.255 0.48 207.575 0 211.685 0C215.795 0 218.985 0.45 221.505 1.34C224.025 2.23 225.995 3.56 227.415 5.31C228.835 7.07 229.795 9.25 230.305 11.86C230.815 14.47 231.065 17.49 231.065 20.92V26.71C231.065 29.97 230.825 32.9 230.335 35.48C229.845 38.07 228.905 40.26 227.505 42.06C226.105 43.86 224.145 45.24 221.625 46.19C219.105 47.14 215.785 47.62 211.675 47.62V47.63ZM211.675 41.84C214.215 41.84 216.285 41.66 217.875 41.3C219.465 40.94 220.725 40.21 221.655 39.11C222.585 38.01 223.225 36.45 223.565 34.44C223.905 32.43 224.075 29.77 224.075 26.46V21.18C224.075 17.92 223.905 15.28 223.565 13.26C223.225 11.25 222.585 9.69 221.655 8.59C220.725 7.49 219.465 6.75 217.875 6.36C216.285 5.98 214.215 5.79 211.675 5.79C209.135 5.79 207.065 5.97 205.475 6.33C203.885 6.69 202.625 7.42 201.695 8.52C200.765 9.62 200.125 11.18 199.785 13.19C199.445 15.2 199.275 17.86 199.275 21.17V26.45C199.275 29.71 199.445 32.35 199.785 34.37C200.125 36.38 200.755 37.94 201.695 39.04C202.625 40.14 203.895 40.88 205.475 41.27C207.065 41.65 209.135 41.84 211.675 41.84Z" fill="#012839"/>
<path d="M228.516 50.77L213.986 36.25H205.096L219.546 50.77H228.516Z" fill="white"/>
<path d="M231.256 50.77L216.736 36.25H207.836L222.286 50.77H231.256Z" fill="url(#paint0_linear_1895_1142)"/>
<path d="M232.676 50.77L218.146 36.25H212.256L226.706 50.77H232.676Z" fill="#012839"/>
<defs>
<linearGradient id="paint0_linear_1895_1142" x1="207.836" y1="43.51" x2="231.256" y2="43.51" gradientUnits="userSpaceOnUse">
<stop offset="0.31" stop-color="#9FCD56"/>
<stop offset="0.6" stop-color="#3E6FB6"/>
<stop offset="0.95" stop-color="#012839"/>
</linearGradient>
</defs>
</svg>
