<svg width="326" height="51" viewBox="0 0 326 51" fill="none" xmlns="http://www.w3.org/2000/svg">
<path d="M129.445 1.19995L128.685 4.62995H113.165V46.47H109.415V4.62995H93.2051L93.9651 1.19995H129.445Z" fill="white"/>
<path d="M170.456 1.19995L169.696 4.62995H145.156V21.4799H168.876L168.116 24.91H145.166V43.0299H170.476L169.716 46.4599H141.416V1.19995H170.476H170.456Z" fill="white"/>
<path d="M209.946 31.97H189.666L184.256 46.47H180.436L197.986 1.19995H201.926L219.416 46.47H215.406L209.936 31.97H209.946ZM190.866 28.6H208.666L199.766 5.13995L190.866 28.6Z" fill="white"/>
<path d="M250.127 32.67L234.807 7.23995V46.47H231.057V1.19995H235.187L251.787 28.86L267.877 1.19995H272.077V46.47H268.327V6.91995L253.127 32.67H250.137H250.127Z" fill="white"/>
<path d="M79.1763 26.6099C79.1063 27.9999 78.8262 29.3299 78.3162 30.6199C77.9463 31.5299 77.4662 32.3799 76.8762 33.1499C75.8662 34.4599 74.6262 35.4499 73.1662 36.1799C72.0562 36.7399 70.8862 37.0899 69.6662 37.2999C68.5362 37.4899 67.4063 37.5399 66.2663 37.4699C64.7563 37.3799 63.2763 37.0999 61.8263 36.6499C61.3063 36.4899 60.8063 36.2999 60.2963 36.1199C60.2963 36.0899 60.2963 36.0599 60.2963 36.0299C60.6163 36.0299 60.9363 36.0599 61.2563 36.0499C63.6063 35.9699 65.6963 35.1699 67.4663 33.5599C68.9663 32.1999 69.9162 30.4999 70.3762 28.5099C70.6162 27.4699 70.6962 26.4099 70.6362 25.3399C70.5562 23.9799 70.2563 22.6899 69.6863 21.4599C69.0463 20.0799 68.1263 18.9199 66.9463 17.9899C65.7063 17.0199 64.3163 16.3899 62.7863 16.1199C60.7663 15.7499 58.8263 16.0099 56.9463 16.8299C56.8563 16.8699 56.7663 16.9199 56.6863 16.9699C55.6263 17.5699 54.6162 18.2299 53.6362 18.9399C52.4562 19.7999 51.3363 20.7199 50.2463 21.6799C49.4263 22.3999 48.6262 23.1499 47.8462 23.9099C47.3762 24.3699 46.9063 24.8399 46.4363 25.3099C46.3963 25.3499 46.3563 25.3899 46.3063 25.4299C46.2163 25.3999 46.1763 25.3299 46.1163 25.2699C45.0663 24.1399 44.0062 23.0099 42.9562 21.8899C42.0662 20.9399 41.1763 19.9899 40.2863 19.0299C40.2463 18.9899 40.2063 18.9399 40.1562 18.8899C40.1762 18.8599 40.1962 18.8199 40.2262 18.7899C42.0762 16.8799 43.9663 15.0199 46.0163 13.3399C47.4863 12.1399 49.0162 11.0299 50.6662 10.0999C51.1062 9.84989 51.5563 9.60989 52.0163 9.37989C53.4863 8.64989 55.0163 8.08989 56.6163 7.71989C57.4063 7.53989 58.2063 7.40989 59.0163 7.32989C59.7963 7.24989 60.5862 7.21989 61.3762 7.23989C63.9762 7.30989 66.4563 7.90989 68.7963 9.06989C69.3663 9.34989 69.9162 9.65989 70.4562 9.99989C70.9662 10.3199 71.4563 10.6699 71.9363 11.0299C72.3563 11.3499 72.7563 11.6799 73.1463 12.0499C73.8063 12.6699 74.4362 13.3199 74.9963 14.0299C75.3063 14.4199 75.6263 14.8099 75.9063 15.2199C76.4763 16.0599 76.9863 16.9399 77.4263 17.8599C78.1463 19.3599 78.6562 20.9299 78.9562 22.5699C79.0863 23.2799 79.1663 23.9999 79.2163 24.7199C79.2163 24.7499 79.2163 24.7899 79.2163 24.8199C79.2463 25.4099 79.2563 25.9899 79.2163 26.5799L79.1763 26.6099Z" fill="#EAEAEA"/>
<path d="M3.56569 17.59C4.16569 17.06 4.80569 16.58 5.51569 16.21C5.94568 15.98 6.36568 15.72 6.84569 15.58C7.67568 15.2 8.54568 14.98 9.43569 14.81C10.0757 14.68 10.7357 14.61 11.3857 14.58C11.8857 14.56 12.3857 14.55 12.8857 14.58C13.8857 14.62 14.8757 14.75 15.8557 14.96C16.7757 15.15 17.6657 15.42 18.5457 15.75C18.6357 15.78 18.7357 15.82 18.8157 15.86C18.8457 15.87 18.8557 15.92 18.8857 15.95C18.8057 16.02 18.7157 15.99 18.6357 15.99C18.3357 15.99 18.0257 15.98 17.7257 15.99C15.8957 16.08 14.2257 16.64 12.7057 17.69C12.0257 18.16 11.4157 18.72 10.8757 19.36C10.3057 20.04 9.83569 20.78 9.47569 21.6C9.03569 22.58 8.76569 23.6 8.63569 24.66C8.53569 25.48 8.52569 26.3 8.60569 27.12C8.70569 28.2 8.95569 29.25 9.38569 30.25C9.90569 31.45 10.6457 32.53 11.5557 33.44C12.4657 34.35 13.3757 35.15 14.4357 35.83C15.2057 36.32 15.6957 36.73 16.3257 37.32C16.9957 37.95 18.0457 39.29 17.0657 41.54C16.1957 43.56 14.3057 44.08 12.5557 43.75C11.6957 43.59 10.8957 43.26 10.1157 42.85C8.28569 41.88 6.61568 40.58 5.18569 39.06C4.11568 37.92 3.18569 36.66 2.42569 35.29C2.05569 34.63 1.73569 33.96 1.44569 33.27C0.875686 31.9 0.475685 30.49 0.245685 29.03C0.0656848 27.89 -0.024315 26.75 0.00568502 25.6C0.045685 24.24 0.275685 22.92 0.765685 21.65C1.05569 20.9 1.42569 20.19 1.87569 19.53C2.36569 18.82 2.91569 18.18 3.55569 17.61L3.56569 17.59Z" fill="#EAEAEA"/>
<path d="M44.5065 24.7C45.7765 26.06 47.0665 27.39 48.4065 28.67C48.9365 29.18 49.4765 29.68 50.0265 30.17C51.2765 31.3 52.5665 32.36 53.9365 33.33C55.1865 34.22 56.4865 35.03 57.8565 35.73C58.3965 36.01 58.9565 36.25 59.5165 36.49C60.5165 36.91 61.5465 37.25 62.5965 37.51C63.4865 37.74 64.3865 37.89 65.3065 38C66.2165 38.1 67.1365 38.13 68.0565 38.09C69.9565 38 71.7865 37.59 73.5165 36.74C74.0065 36.5 74.4765 36.23 74.9265 35.92C75.6765 35.39 76.3665 34.78 76.9665 34.07C77.2265 33.76 77.4665 33.43 77.7065 33.11L77.7765 33.18C77.6965 33.37 77.6165 33.56 77.5365 33.76C77.2865 34.36 76.9865 34.94 76.6565 35.5C75.9165 36.78 75.0465 37.96 74.0365 39.03C73.4965 39.6 72.9265 40.14 72.3165 40.64C71.4465 41.36 70.5265 41.99 69.5365 42.53C67.8665 43.45 66.0965 44.09 64.2365 44.44C62.9165 44.69 61.5865 44.78 60.2465 44.74C58.1165 44.68 56.0565 44.25 54.0565 43.5C53.4165 43.26 52.7865 42.99 52.1765 42.69C51.2165 42.22 50.2865 41.71 49.3865 41.12C48.9565 40.84 48.5465 40.54 48.1265 40.25C47.3465 39.73 46.6265 39.15 45.8965 38.55C44.5865 37.47 43.3365 36.32 42.1265 35.13C40.6065 33.64 39.1465 32.08 37.6865 30.52C36.3765 29.11 35.0765 27.69 33.7465 26.3C31.8165 24.26 29.7965 22.32 27.6465 20.53C27.2465 20.2 26.8365 19.87 26.4265 19.56C26.0065 19.24 25.5965 18.91 25.1665 18.61C24.6365 18.25 24.1065 17.89 23.5565 17.55C22.9965 17.21 22.4365 16.85 21.8565 16.54C21.0965 16.13 20.3165 15.75 19.5165 15.42C18.2465 14.9 16.9565 14.49 15.6165 14.22C14.9765 14.09 14.3265 14 13.6665 13.94C12.8165 13.86 11.9665 13.85 11.1165 13.91C9.42648 14.02 7.79648 14.39 6.23648 15.09C5.25648 15.53 4.34648 16.08 3.50648 16.77C2.76648 17.38 2.11648 18.07 1.56648 18.86C1.53648 18.91 1.49648 18.95 1.46648 19C1.44648 18.98 1.42648 18.95 1.39648 18.93C1.50648 18.67 1.60648 18.4 1.72648 18.15C1.90648 17.76 2.09648 17.37 2.30648 16.99C2.92648 15.84 3.64648 14.77 4.48648 13.77C4.96648 13.2 5.46648 12.67 6.00648 12.16C6.56648 11.63 7.15648 11.14 7.77648 10.69C8.88648 9.89 10.0565 9.22 11.3065 8.68C12.6565 8.1 14.0565 7.7 15.5065 7.47C16.7465 7.27 17.9865 7.21 19.2265 7.27C21.7565 7.39 24.1665 8 26.4765 9.05C27.6565 9.58 28.7865 10.21 29.8765 10.91C30.8865 11.56 31.8465 12.26 32.7865 13.01C33.5965 13.65 34.3765 14.33 35.1465 15.02C36.1465 15.93 37.1165 16.86 38.0565 17.83C38.8565 18.65 39.6665 19.48 40.4565 20.32C41.8165 21.77 43.1565 23.22 44.5065 24.67V24.7Z" fill="white"/>
<path d="M35.3464 36.8399C37.0664 35.0799 37.0664 32.2199 35.3464 30.4599C33.6264 28.6999 30.8364 28.6999 29.1064 30.4599C27.3864 32.2199 27.3864 35.0799 29.1064 36.8399C30.8264 38.5999 33.6164 38.5999 35.3464 36.8399Z" fill="#9FCD56"/>
<path d="M23.2948 43.99C25.7348 43.99 27.7048 41.97 27.7048 39.48C27.7048 36.99 25.7348 34.97 23.2948 34.97C20.8548 34.97 18.8848 36.99 18.8848 39.48C18.8848 41.97 20.8548 43.99 23.2948 43.99Z" fill="#9FCD56"/>
<path d="M298.907 41.26C297.317 40.88 296.057 40.14 295.127 39.03C294.197 37.93 293.557 36.37 293.217 34.36C292.877 32.35 292.707 29.71 292.707 26.44V21.16C292.707 17.85 292.877 15.19 293.217 13.18C293.557 11.17 294.187 9.61 295.127 8.51C296.057 7.41 297.317 6.68 298.907 6.32C300.497 5.96 302.567 5.78 305.107 5.78C307.647 5.78 309.717 5.97 311.307 6.35C312.897 6.73 314.157 7.47 315.087 8.58C316.017 9.68 316.657 11.24 316.997 13.25C317.337 15.26 317.507 17.9 317.507 21.17V26.45C317.507 29.76 317.337 32.42 316.997 34.43C316.657 36.44 316.017 38 315.087 39.1C314.847 39.38 314.587 39.64 314.307 39.87L318.677 44.23C319.537 43.59 320.307 42.87 320.937 42.06C322.337 40.26 323.277 38.07 323.767 35.48C324.257 32.9 324.497 29.97 324.497 26.71V20.92C324.497 17.49 324.247 14.47 323.737 11.86C323.227 9.25 322.267 7.07 320.847 5.31C319.427 3.55 317.457 2.23 314.937 1.34C312.417 0.45 309.137 0 305.117 0C301.097 0 297.687 0.479998 295.167 1.43C292.647 2.38 290.687 3.76 289.287 5.56C287.887 7.36 286.947 9.56 286.457 12.14C285.967 14.73 285.727 17.65 285.727 20.92V26.71C285.727 30.14 285.977 33.16 286.487 35.77C286.997 38.38 287.957 40.56 289.377 42.32C290.797 44.08 292.767 45.4 295.287 46.29C297.807 47.18 301.087 47.63 305.107 47.63C306.427 47.63 307.647 47.58 308.807 47.48L303.157 41.8C301.487 41.72 300.067 41.55 298.907 41.27V41.26Z" fill="white"/>
<path d="M304.795 36.24H300.375L314.825 50.76H319.245L304.795 36.24Z" fill="url(#paint0_linear_891_401)"/>
<path d="M318.675 44.23L314.315 39.86L310.685 36.24H309.265H306.525H304.795L319.245 50.76H321.055H323.795H325.215L318.675 44.23Z" fill="white"/>
<defs>
<linearGradient id="paint0_linear_891_401" x1="300.375" y1="43.5" x2="319.245" y2="43.5" gradientUnits="userSpaceOnUse">
<stop offset="0.31" stop-color="#9FCD56"/>
<stop offset="0.6" stop-color="#3E6FB6"/>
<stop offset="0.95" stop-color="#012839"/>
</linearGradient>
</defs>
</svg>
